<?xml version="1.0" encoding="utf-8"?>
<!-- Generator: Adobe Illustrator 24.2.0, SVG Export Plug-In . SVG Version: 6.00 Build 0)  -->
<svg version="1.1" id="Calque_1" xmlns="http://www.w3.org/2000/svg" xmlns:xlink="http://www.w3.org/1999/xlink" x="0px" y="0px"
	 viewBox="0 0 1891 661" style="enable-background:new 0 0 1891 661;" xml:space="preserve">
<style type="text/css">
	.st0{filter:url(#filter-3);}
	.st1{fill-rule:evenodd;clip-rule:evenodd;}
	.st2{fill-rule:evenodd;clip-rule:evenodd;fill:url(#path-2_2_);}
	.st3{filter:url(#filter-6);}
	.st4{fill-rule:evenodd;clip-rule:evenodd;fill:url(#path-5_2_);}
	.st5{enable-background:new    ;}
	.st6{fill:#333333;}
</style>
<filter  filterUnits="objectBoundingBox" height="107.3%" id="filter-6" width="112.1%" x="-6.0%" y="-3.7%">
	<feOffset  dx="0" dy="0" in="SourceAlpha" result="shadowOffsetOuter1"></feOffset>
	<feGaussianBlur  in="shadowOffsetOuter1" result="shadowBlurOuter1" stdDeviation="7.5"></feGaussianBlur>
	<feColorMatrix  in="shadowBlurOuter1" type="matrix" values="0 0 0 0 0   0 0 0 0 0   0 0 0 0 0  0 0 0 0.150486233 0">
		</feColorMatrix>
</filter>
<filter  filterUnits="objectBoundingBox" height="113.5%" id="filter-3" width="160.6%" x="-30.3%" y="-10.2%">
	<feOffset  dx="0" dy="-15" in="SourceAlpha" result="shadowOffsetOuter1"></feOffset>
	<feGaussianBlur  in="shadowOffsetOuter1" result="shadowBlurOuter1" stdDeviation="7.5"></feGaussianBlur>
	<feColorMatrix  in="shadowBlurOuter1" type="matrix" values="0 0 0 0 0   0 0 0 0 0   0 0 0 0 0  0 0 0 0.1 0"></feColorMatrix>
</filter>
<g id="Dekstop">
	<g id="Group-4" transform="translate(15.000000, 30.000000)">
		<g id="Group">
			<g id="Rectangle">
				<g class="st0">
					<rect id="path-2_2_" x="274" y="0" class="st1" width="99" height="443"/>
				</g>
				<g>
					
						<linearGradient id="path-2_2_" gradientUnits="userSpaceOnUse" x1="619.0457" y1="696.853" x2="619.025" y2="695.853" gradientTransform="matrix(99 0 0 -443 -60961 308706)">
						<stop  offset="0" style="stop-color:#9F00B8;stop-opacity:0.6978"/>
						<stop  offset="0.4978" style="stop-color:#8D00DB;stop-opacity:0.7462"/>
						<stop  offset="1" style="stop-color:#4B009B"/>
					</linearGradient>
					<rect id="path-2_1_" x="274" y="0" class="st2" width="99" height="443"/>
				</g>
			</g>
			<g id="Combined-Shape">
				<g class="st3">
					<path id="path-5_2_" class="st1" d="M187,0c31.5,0,61.1,7.8,87,21.5l0,256.4c58.9,30,99,89.8,99,161.1
						c0,102.7-83.3,177-186,177S1,541.7,1,439l0-2l100,0c1.1,42.7,31.3,77,86.5,77c56.2,0,86.5-35.6,86.5-79.5S234.1,355,187.5,355
						l-0.5,0l0-0.1c0,0,0,0,0,0C83.7,354.9,0,290.3,0,187S83.7,0,187,0z M187.5,98c-46.6,0-86.5,35.6-86.5,79.5s30.3,79.5,86.5,79.5
						c3.7,0,7.8,0.2,12,0.7c26.8,1.7,52,8.8,74.5,20.2l0-100.4C274,133.6,234.1,98,187.5,98z"/>
				</g>
				<g>
					
						<linearGradient id="path-5_2_" gradientUnits="userSpaceOnUse" x1="623.97" y1="696.8936" x2="623.6033" y2="695.8936" gradientTransform="matrix(373 0 0 -616 -232485 429287)">
						<stop  offset="0" style="stop-color:#7A00FF"/>
						<stop  offset="1" style="stop-color:#9D29E6"/>
					</linearGradient>
					<path id="path-5_1_" class="st4" d="M187,0c31.5,0,61.1,7.8,87,21.5l0,256.4c58.9,30,99,89.8,99,161.1
						c0,102.7-83.3,177-186,177S1,541.7,1,439l0-2l100,0c1.1,42.7,31.3,77,86.5,77c56.2,0,86.5-35.6,86.5-79.5S234.1,355,187.5,355
						l-0.5,0l0-0.1c0,0,0,0,0,0C83.7,354.9,0,290.3,0,187S83.7,0,187,0z M187.5,98c-46.6,0-86.5,35.6-86.5,79.5s30.3,79.5,86.5,79.5
						c3.7,0,7.8,0.2,12,0.7c26.8,1.7,52,8.8,74.5,20.2l0-100.4C274,133.6,234.1,98,187.5,98z"/>
				</g>
			</g>
		</g>
		<g id="Group-2" transform="translate(464.000000, 49.000000)">
			<g class="st5">
				<path class="st6" d="M227.1,87.7c-4-1.9-9.3-4.1-15.8-6.6c-6.5-2.5-14-4.8-22.2-7c-8.3-2.2-17.3-4-27-5.5
					c-9.7-1.5-19.7-2.2-29.9-2.2c-8.2,0-15.2,0.3-20.9,0.8c-5.8,0.5-10.6,1.2-14.6,2c-3.9,0.8-7.1,1.8-9.4,2.8
					C85,73,83.3,74.1,82,75.3c-1.2,1.1-2,2.2-2.4,3.4c-0.4,1.1-0.5,2.1-0.5,3.1c0,3.1,1.5,5.8,4.6,8c3.1,2.3,7.3,4.3,12.6,6.1
					c5.3,1.8,11.5,3.5,18.6,5.1c7.1,1.6,14.5,3.2,22.5,4.9c7.9,1.7,16.1,3.5,24.5,5.5c8.4,2,16.6,4.3,24.5,7
					c7.9,2.7,15.4,5.7,22.5,9.3c7.1,3.5,13.2,7.6,18.6,12.3c5.3,4.7,9.5,10.1,12.6,16.3s4.6,13.1,4.6,21c0,10.1-1.8,18.8-5.4,26.1
					c-3.6,7.3-8.4,13.4-14.3,18.4c-6,5-12.9,9-20.8,12c-7.9,3-16.1,5.3-24.8,7c-8.6,1.6-17.4,2.7-26.2,3.2
					c-8.8,0.5-17.2,0.8-25.2,0.8c-20.9,0-40.1-1.7-57.9-5.1c-17.7-3.4-33.4-7.7-47-12.8v-50.3c14,7.8,30,13.9,47.9,18.2
					c17.9,4.4,37.1,6.6,57.6,6.6c12.1,0,21.9-0.6,29.5-1.9c7.6-1.3,13.6-2.9,17.9-4.9c4.3-2,7.2-4.2,8.7-6.5
					c1.5-2.4,2.3-4.6,2.3-6.7c0-3.4-1.5-6.3-4.6-8.8c-3.1-2.5-7.3-4.7-12.6-6.6c-5.3-1.9-11.5-3.6-18.6-5.2
					c-7.1-1.6-14.5-3.2-22.5-4.8c-7.9-1.6-16.1-3.3-24.5-5.1c-8.4-1.8-16.5-4-24.5-6.5c-7.9-2.5-15.4-5.4-22.5-8.7
					c-7.1-3.3-13.2-7.3-18.6-11.8c-5.3-4.5-9.5-9.8-12.6-15.8c-3.1-6-4.6-12.9-4.6-20.8c0-9.3,1.6-17.3,4.9-24.1
					c3.3-6.7,7.7-12.5,13.3-17.2c5.6-4.8,12-8.6,19.3-11.6c7.3-3,15-5.3,23.1-6.9c8.1-1.6,16.3-2.8,24.5-3.4s16.1-0.9,23.6-0.9
					c8.2,0,16.6,0.4,25.2,1.2c8.6,0.8,17.1,2,25.5,3.5c8.4,1.5,16.5,3.2,24.3,5.1c7.8,1.9,15,4,21.7,6.1V87.7z"/>
				<path class="st6" d="M570,133.8c0,18.1-3.3,34.1-10,47.9c-6.6,13.9-16.2,25.4-28.5,34.7c-12.4,9.3-27.4,16.3-45,21.1
					c-17.6,4.8-37.4,7.1-59.4,7.1c-22,0-41.8-2.4-59.6-7.1c-17.7-4.8-32.8-11.8-45.3-21.1c-12.5-9.3-22.1-20.9-28.8-34.7
					c-6.7-13.8-10.1-29.8-10.1-47.9s3.4-34.1,10.1-47.9c6.7-13.8,16.4-25.4,28.8-34.7c12.5-9.3,27.6-16.3,45.3-21.1
					c17.7-4.8,37.6-7.1,59.6-7.1c22,0,41.8,2.4,59.4,7.1c17.6,4.8,32.6,11.8,45,21.1c12.4,9.3,21.9,20.9,28.5,34.7
					C566.7,99.8,570,115.7,570,133.8z M512.5,133.8c0-7.9-1.3-15.7-3.8-23.5c-2.5-7.8-7-14.8-13.3-21.1C489,83,480.3,77.9,469.3,74
					c-11-3.9-25.1-5.8-42.2-5.8c-11.4,0-21.5,0.9-30.2,2.7c-8.7,1.8-16.2,4.3-22.5,7.4c-6.3,3.2-11.7,6.9-15.9,11.1
					c-4.3,4.2-7.7,8.8-10.3,13.6c-2.6,4.9-4.4,9.9-5.4,15.2c-1.1,5.3-1.6,10.5-1.6,15.6c0,5.2,0.5,10.5,1.6,15.8
					c1.1,5.3,2.9,10.4,5.4,15.3c2.6,4.9,6,9.4,10.3,13.6c4.3,4.2,9.6,7.8,15.9,11c6.3,3.1,13.8,5.6,22.5,7.4
					c8.7,1.8,18.8,2.7,30.2,2.7c17.1,0,31.1-1.9,42.2-5.8c11-3.9,19.8-8.9,26.1-15.2c6.4-6.2,10.8-13.3,13.3-21.1
					C511.3,149.5,512.5,141.7,512.5,133.8z"/>
				<path class="st6" d="M677.8,148.8c0,8.8,0.8,16,2.5,21.5c1.6,5.6,4.3,10,8,13.3c3.7,3.3,8.5,5.5,14.3,6.7
					c5.9,1.2,13.1,1.8,21.7,1.8h107.9V239H712.6c-16.6,0-30.6-1.4-42.2-4.1c-11.6-2.7-21.1-6.9-28.4-12.6
					c-7.4-5.7-12.7-12.9-16-21.5c-3.3-8.7-5-19-5-31V28.3h56.9V148.8z"/>
				<path class="st6" d="M1055.4,239v-20.7c-7.3,4-15.1,7.5-23.4,10.6c-8.3,3.1-17,5.7-26,7.8c-9,2.1-18.3,3.8-27.8,4.8
					c-9.6,1.1-19.2,1.6-28.9,1.6c-11.3,0-22.3-1.1-32.9-3.2c-10.6-2.1-20-5.6-28.1-10.4c-8.2-4.8-14.7-11.1-19.7-18.9
					c-5-7.8-7.4-17.3-7.4-28.5c0-14.2,3.9-26,11.7-35.5c7.8-9.5,19.6-17.2,35.6-23.2c15.9-6,36.1-10.7,60.5-14
					c24.4-3.3,53.2-5.8,86.5-7.7v-4.4c0-3.5-0.9-6.9-2.8-10.3c-1.8-3.4-5.2-6.4-10-9c-4.9-2.6-11.5-4.7-19.9-6.4
					c-8.4-1.6-19.2-2.5-32.3-2.5c-10.3,0-20.5,0.5-30.6,1.6c-10.1,1.1-19.8,2.5-29.1,4.4c-9.4,1.8-18.2,4-26.6,6.4
					c-8.4,2.5-16,5-22.8,7.7V38.6c7.2-1.8,15.2-3.6,24.1-5.4c8.9-1.7,18.1-3.2,27.8-4.5c9.6-1.3,19.3-2.3,29.1-3.1
					c9.8-0.8,19.2-1.1,28.2-1.1c17.7,0,34,1.5,48.9,4.4c14.9,2.9,27.8,7.4,38.6,13.6c10.8,6.1,19.2,13.9,25.3,23.3
					c6.1,9.4,9.1,20.6,9.1,33.6V239H1055.4z M1055.4,142.9c-21.9,0.8-40.5,2-55.7,3.5c-15.3,1.5-28,3.3-38.1,5.4
					c-10.1,2-18.1,4.2-23.8,6.6c-5.8,2.4-10.1,4.8-13,7.2c-2.9,2.5-4.6,4.9-5.3,7.4c-0.7,2.5-1,4.7-1,6.7c0,2.5,0.7,4.8,2,7.1
					c1.3,2.3,3.7,4.3,7,6.1c3.3,1.7,7.7,3.1,13.3,4.1c5.5,1,12.5,1.5,20.9,1.5c9.3,0,18.4-0.7,27.3-2.1c8.9-1.4,17.3-3.4,25.3-5.9
					c8-2.5,15.5-5.5,22.5-8.9c7-3.4,13.3-7.1,18.8-11V142.9z"/>
				<path class="st6" d="M1233.2,148.8c0,8.8,0.8,16,2.5,21.5c1.6,5.6,4.3,10,8,13.3c3.7,3.3,8.5,5.5,14.3,6.7
					c5.9,1.2,13.1,1.8,21.7,1.8h107.9V239H1268c-16.6,0-30.6-1.4-42.2-4.1c-11.6-2.7-21.1-6.9-28.4-12.6c-7.4-5.7-12.7-12.9-16-21.5
					c-3.3-8.7-5-19-5-31V28.3h56.9V148.8z"/>
			</g>
			<g class="st5">
				<path class="st6" d="M133,324.8c8,0,15.4,0.4,22.3,1.2c6.9,0.8,13.5,1.9,19.8,3.4c6.3,1.5,12.4,3.2,18.4,5.3
					c6,2.1,12,4.3,18,6.9v19.1c-4.8-3-9.9-5.9-15.3-8.6c-5.4-2.7-11.3-5-17.5-7.1c-6.3-2-13-3.6-20.2-4.8
					c-7.2-1.2-14.9-1.8-23.1-1.8c-16.8,0-31.5,1.8-44,5.3c-12.5,3.5-22.9,8.6-31.3,15.1s-14.6,14.5-18.7,23.9
					c-4.2,9.4-6.2,20-6.2,31.7c0,11,2,21.1,6.1,30.4c4.1,9.3,10.3,17.3,18.5,24c8.3,6.7,18.6,12,31.1,15.7c12.4,3.8,27,5.7,43.7,5.7
					c6.6,0,13-0.3,19.5-0.8c6.4-0.5,12.5-1.2,18.2-2c5.7-0.8,10.9-1.7,15.6-2.6c4.7-1,8.7-2,12-3v-52.5h-70.4v-14.7h86.2v76.1
					c-6.2,2.2-12.5,4.1-18.8,5.8c-6.3,1.7-12.9,3.1-19.7,4.2c-6.8,1.1-13.8,2-21,2.6c-7.3,0.6-14.9,0.9-22.9,0.9
					c-16.3,0-31.4-1.8-45.4-5.5c-13.9-3.7-26-9.2-36.2-16.6c-10.2-7.4-18.2-16.8-24-28C21.9,443,19,429.8,19,414.6
					c0-10.2,1.3-19.4,4-27.8c2.7-8.4,6.5-15.9,11.4-22.6c4.9-6.7,10.8-12.5,17.8-17.4c6.9-5,14.6-9,23.1-12.3
					c8.4-3.2,17.5-5.7,27.3-7.3C112.3,325.6,122.4,324.8,133,324.8z"/>
				<path class="st6" d="M439.4,491.9c-7.1,2.2-13.6,4.1-19.7,5.6c-6,1.6-12,2.8-17.9,3.8c-5.9,1-11.9,1.7-18,2.1
					c-6.1,0.5-12.8,0.7-20.1,0.7c-17,0-32.3-2.1-46-6.2c-13.7-4.1-25.3-10-35-17.7c-9.6-7.7-17-17-22.2-27.9
					c-5.2-10.9-7.8-23.2-7.8-36.8c0-13.2,2.5-25.3,7.5-36.3c5-11,12-20.4,21-28.3c9-7.9,19.7-14,32.2-18.4
					c12.5-4.4,26.3-6.6,41.4-6.6c15.7,0,29.7,2.1,42,6.3c12.3,4.2,22.6,10.2,31,18c8.4,7.8,14.8,17.3,19.1,28.4
					c4.4,11.1,6.6,23.7,6.6,37.6v3.9H268.9c0.9,10.8,3.6,20.5,8.1,29.1c4.5,8.7,10.8,16,19,22s18.3,10.7,30.3,13.9
					c12,3.2,25.9,4.8,41.9,4.8c6.8,0,13.7-0.5,20.7-1.4c7-0.9,13.7-2.2,20-3.7c6.4-1.6,12.2-3.3,17.5-5.3c5.3-2,9.6-4,13-6.1V491.9z
					 M438.1,406.5c-0.6-8.8-2.6-17.2-5.9-25.3c-3.4-8-8.4-15.1-15.1-21.2c-6.7-6.1-15.2-11-25.5-14.6c-10.3-3.6-22.6-5.4-37-5.4
					c-13.5,0-25.4,1.8-35.6,5.4c-10.2,3.6-18.8,8.5-25.8,14.5c-7.1,6.1-12.6,13.1-16.6,21.2c-4,8-6.6,16.5-7.7,25.4H438.1z"/>
				<path class="st6" d="M666.2,501V386.7c0-9.6-1.3-17.4-3.8-23.6c-2.6-6.2-6.2-11.1-11-14.7c-4.7-3.6-10.5-6.1-17.3-7.6
					c-6.8-1.4-14.4-2.1-22.9-2.1c-9.8,0-19.5,1.2-28.9,3.6c-9.4,2.4-18.4,5.4-26.8,9.1c-8.4,3.7-16.1,7.7-23.2,12.2
					c-7.1,4.5-13,8.7-17.9,12.8V501h-15.7V327.9h15.7v30.4c5.9-3.7,12.4-7.6,19.5-11.7c7.1-4.1,14.7-7.8,22.9-11.2
					c8.2-3.4,16.9-6.2,26.3-8.4c9.3-2.2,19.1-3.3,29.5-3.3c11.7,0,21.9,1.4,30.5,4.2c8.7,2.8,15.9,6.8,21.7,12
					c5.8,5.2,10.1,11.4,12.9,18.8c2.9,7.4,4.3,15.6,4.3,24.6V501H666.2z"/>
				<path class="st6" d="M927.4,414.3c0,11.1-1.2,20.9-3.5,29.5c-2.3,8.6-5.6,16.1-9.8,22.5c-4.2,6.4-9.3,11.8-15.3,16.3
					c-6,4.5-12.7,8-20,10.7c-7.4,2.7-15.3,4.6-23.9,5.9c-8.6,1.2-17.7,1.8-27.1,1.8h-89.3V327.9h89.1c14.2,0,27.4,1.4,39.6,4.2
					c12.2,2.8,22.7,7.5,31.7,14.2c8.9,6.7,16,15.6,21,26.6C924.8,384,927.4,397.8,927.4,414.3z M911.2,414.4c0-9.4-0.9-17.7-2.8-25
					c-1.9-7.2-4.5-13.5-7.9-18.8c-3.4-5.3-7.6-9.8-12.6-13.4c-5-3.6-10.5-6.5-16.8-8.8c-6.2-2.2-13-3.8-20.3-4.7s-15.1-1.4-23.3-1.4
					h-73.4v144.4h73.4c12.4,0,23.7-1.1,33.9-3.3c10.3-2.2,19.1-6.1,26.4-11.6c7.4-5.5,13.1-12.9,17.2-22.2
					C909.2,440.2,911.2,428.5,911.2,414.4z"/>
				<path class="st6" d="M1090.3,338.8c-4.3-0.9-9.9-1.3-16.7-1.3c-9.4,0-18.2,1.2-26.5,3.5c-8.3,2.3-16,5.4-23.1,9.4
					c-7.1,3.9-13.7,8.5-19.7,13.8c-6,5.2-11.5,10.8-16.4,16.7V501h-15.7V327.9h15.7v35.3c5.6-5.8,11.7-11.1,18.3-16
					c6.6-4.9,13.5-9,20.8-12.5c7.3-3.5,15-6.2,23-8.2c8-2,16.3-3,24.9-3c2.9,0,5.6,0.1,7.9,0.2c2.4,0.1,4.5,0.3,6.5,0.5
					c2,0.2,3.8,0.4,5.6,0.7s3.6,0.5,5.4,0.9v15.5C1098,340.5,1094.6,339.7,1090.3,338.8z"/>
				<path class="st6" d="M1128.5,501V327.9h15.7V501H1128.5z"/>
				<path class="st6" d="M1369.1,501V386.7c0-9.6-1.3-17.4-3.8-23.6c-2.6-6.2-6.2-11.1-11-14.7c-4.7-3.6-10.5-6.1-17.3-7.6
					c-6.8-1.4-14.4-2.1-22.9-2.1c-9.8,0-19.5,1.2-28.9,3.6c-9.4,2.4-18.4,5.4-26.8,9.1c-8.4,3.7-16.1,7.7-23.2,12.2
					c-7.1,4.5-13,8.7-17.9,12.8V501h-15.7V327.9h15.7v30.4c5.9-3.7,12.4-7.6,19.5-11.7c7.1-4.1,14.7-7.8,22.9-11.2
					c8.2-3.4,16.9-6.2,26.3-8.4c9.3-2.2,19.1-3.3,29.5-3.3c11.7,0,21.9,1.4,30.5,4.2c8.7,2.8,15.9,6.8,21.7,12
					c5.8,5.2,10.1,11.4,12.9,18.8c2.9,7.4,4.3,15.6,4.3,24.6V501H1369.1z"/>
			</g>
		</g>
	</g>
</g>
</svg>
