<svg id="Calque_1" data-name="Calque 1" xmlns="http://www.w3.org/2000/svg" xmlns:xlink="http://www.w3.org/1999/xlink" viewBox="0 0 1891 661"><defs><style>.cls-1{filter:url(#filter-3);}.cls-2{fill:url(#Dégradé_sans_nom);}.cls-3{filter:url(#filter-6);}.cls-4,.cls-5{fill-rule:evenodd;}.cls-5{fill:url(#Dégradé_sans_nom_2);}.cls-6{isolation:isolate;}.cls-7{fill:#333;}</style><filter id="filter-3" x="-30.3%" y="-10.2%" width="160.6%" height="113.5%" name="filter-3"><feOffset result="shadowOffsetOuter1" dy="-15" in="SourceAlpha"/><feGaussianBlur result="shadowBlurOuter1" stdDeviation="7.5" in="shadowOffsetOuter1"/><feColorMatrix values="0 0 0 0 0 0 0 0 0 0 0 0 0 0 0 0 0 0 0.1 0" in="shadowBlurOuter1"/></filter><linearGradient id="Dégradé_sans_nom" x1="634.05" y1="726.85" x2="634.02" y2="725.85" gradientTransform="matrix(99, 0, 0, -443, -62431, 322026)" gradientUnits="userSpaceOnUse"><stop offset="0" stop-color="#9f00b8" stop-opacity="0.7"/><stop offset="0.5" stop-color="#8d00db" stop-opacity="0.75"/><stop offset="1" stop-color="#4b009b"/></linearGradient><filter id="filter-6" x="-6%" y="-3.7%" width="112.1%" height="107.3%" name="filter-6"><feOffset result="shadowOffsetOuter1" in="SourceAlpha"/><feGaussianBlur result="shadowBlurOuter1" stdDeviation="7.5" in="shadowOffsetOuter1"/><feColorMatrix values="0 0 0 0 0 0 0 0 0 0 0 0 0 0 0 0 0 0 0.15 0" in="shadowBlurOuter1"/></filter><linearGradient id="Dégradé_sans_nom_2" x1="638.97" y1="726.89" x2="638.6" y2="725.89" gradientTransform="matrix(373, 0, 0, -616, -238065, 447797)" gradientUnits="userSpaceOnUse"><stop offset="0" stop-color="#7a00ff"/><stop offset="1" stop-color="#9d29e6"/></linearGradient></defs><g id="Dekstop"><g id="Group-4"><g id="Group"><g id="Rectangle"><g class="cls-1"><rect id="path-2" x="289" y="30" width="99" height="443"/></g><rect id="path-2-2" data-name="path-2" class="cls-2" x="289" y="30" width="99" height="443"/></g><g id="Combined-Shape"><g class="cls-3"><path id="path-5" class="cls-4" d="M202,30a184.86,184.86,0,0,1,87,21.55V307.91c58.88,29.95,99,89.8,99,161.09,0,102.72-83.28,177-186,177S16,571.72,16,469l0-2H116c1.13,42.75,31.3,77,86.47,77,56.24,0,86.5-35.59,86.5-79.5S249.1,385,202.5,385H202v-.1h0C98.72,384.9,15,320.28,15,217S98.72,30,202,30Zm.5,98c-46.6,0-86.5,35.59-86.5,79.5S146.26,287,202.5,287a111,111,0,0,1,12,.71A190.3,190.3,0,0,1,289,307.91V207.5C289,163.59,249.1,128,202.5,128Z"/></g><path id="path-5-2" data-name="path-5" class="cls-5" d="M202,30a184.86,184.86,0,0,1,87,21.55V307.91c58.88,29.95,99,89.8,99,161.09,0,102.72-83.28,177-186,177S16,571.72,16,469l0-2H116c1.13,42.75,31.3,77,86.47,77,56.24,0,86.5-35.59,86.5-79.5S249.1,385,202.5,385H202v-.1h0C98.72,384.9,15,320.28,15,217S98.72,30,202,30Zm.5,98c-46.6,0-86.5,35.59-86.5,79.5S146.26,287,202.5,287a111,111,0,0,1,12,.71A190.3,190.3,0,0,1,289,307.91V207.5C289,163.59,249.1,128,202.5,128Z"/></g></g><g id="Group-2"><g id="Solal" class="cls-6"><g class="cls-6"><path class="cls-7" d="M706.07,166.67q-6-2.91-15.79-6.59t-22.24-7a259.84,259.84,0,0,0-27-5.52,198.22,198.22,0,0,0-29.9-2.22q-12.27,0-20.93.77a128.43,128.43,0,0,0-14.56,2,43.44,43.44,0,0,0-9.35,2.84,21,21,0,0,0-5.29,3.29,8.08,8.08,0,0,0-2.38,3.38,10.09,10.09,0,0,0-.54,3.06q0,4.6,4.6,8.05a45.05,45.05,0,0,0,12.58,6.14,187.94,187.94,0,0,0,18.55,5.06q10.57,2.37,22.46,4.9t24.53,5.52q12.64,3,24.53,7a174.81,174.81,0,0,1,22.46,9.27A85.11,85.11,0,0,1,706.37,219,53.4,53.4,0,0,1,719,235.21a46.4,46.4,0,0,1,4.6,21q0,15.18-5.37,26.07a55.84,55.84,0,0,1-14.34,18.39,72.21,72.21,0,0,1-20.77,12,144,144,0,0,1-24.76,7,206.78,206.78,0,0,1-26.22,3.22q-13.26.76-25.22.76A306,306,0,0,1,549,318.54a290.42,290.42,0,0,1-47-12.81V255.45a193.08,193.08,0,0,0,47.91,18.24,241.12,241.12,0,0,0,57.57,6.59q18.09,0,29.52-1.91t17.86-4.91q6.43-3,8.74-6.52a12.45,12.45,0,0,0,2.3-6.74q0-5.06-4.6-8.82a42.45,42.45,0,0,0-12.57-6.59,160.67,160.67,0,0,0-18.56-5.21q-10.57-2.39-22.46-4.76t-24.45-5.13q-12.57-2.76-24.46-6.52a179.48,179.48,0,0,1-22.46-8.74,82,82,0,0,1-18.55-11.8,51.6,51.6,0,0,1-12.57-15.8,44.82,44.82,0,0,1-4.6-20.77q0-14,4.9-24.07a52.33,52.33,0,0,1,13.27-17.25,70.37,70.37,0,0,1,19.31-11.58,130.5,130.5,0,0,1,23.08-6.9,196.87,196.87,0,0,1,24.53-3.37q12.42-.92,23.61-.92,12.27,0,25.22,1.23t25.53,3.45q12.57,2.22,24.3,5.13t21.7,6.14Z"/><path class="cls-7" d="M1049,212.82q0,27.13-10,47.91a93.41,93.41,0,0,1-28.52,34.73q-18.56,13.95-45,21.08t-59.41,7.13q-33,0-59.57-7.13t-45.3-21.08a94.23,94.23,0,0,1-28.83-34.73Q762.32,240,762.31,212.82t10.12-47.91a94.31,94.31,0,0,1,28.83-34.73q18.71-14,45.3-21.08T906.13,102q33,0,59.41,7.13t45,21.08a93.49,93.49,0,0,1,28.52,34.73Q1049,185.69,1049,212.82Zm-57.49,0a76.58,76.58,0,0,0-3.76-23.53,50.89,50.89,0,0,0-13.34-21.08q-9.58-9.36-26.14-15.18t-42.16-5.83a151.77,151.77,0,0,0-30.21,2.68,91.75,91.75,0,0,0-22.53,7.44,61.75,61.75,0,0,0-15.95,11.12,55.6,55.6,0,0,0-10.27,13.64,57,57,0,0,0-5.45,15.18,78,78,0,0,0-1.6,15.56,79.74,79.74,0,0,0,1.6,15.79,56.69,56.69,0,0,0,5.45,15.26,54.19,54.19,0,0,0,10.27,13.57,61.39,61.39,0,0,0,15.95,11,94,94,0,0,0,22.53,7.36,151,151,0,0,0,30.21,2.68q25.61,0,42.16-5.82t26.14-15.18a50.89,50.89,0,0,0,13.34-21.08A76.64,76.64,0,0,0,991.53,212.82Z"/><path class="cls-7" d="M1156.79,227.85q0,13.18,2.45,21.54a27.62,27.62,0,0,0,8,13.26,30.53,30.53,0,0,0,14.34,6.75,108.73,108.73,0,0,0,21.69,1.84h107.94V318H1191.59q-24.84,0-42.24-4.06t-28.44-12.57a48.65,48.65,0,0,1-16-21.55q-5-13-5-31V107.34h56.89Z"/><path class="cls-7" d="M1534.39,318V297.3A171.78,171.78,0,0,1,1511,307.88a230.1,230.1,0,0,1-53.82,12.65,259.44,259.44,0,0,1-28.9,1.61,164.66,164.66,0,0,1-32.88-3.22,90.73,90.73,0,0,1-28.14-10.43,57.59,57.59,0,0,1-19.7-18.85q-7.44-11.65-7.44-28.52,0-21.31,11.66-35.5t35.57-23.22q23.91-9,60.48-14t86.55-7.66v-4.45a21.7,21.7,0,0,0-2.76-10.35q-2.76-5.13-10-9t-19.93-6.37q-12.66-2.44-32.28-2.45a289.36,289.36,0,0,0-30.59,1.61q-15.09,1.61-29.13,4.37t-26.6,6.44q-12.57,3.68-22.84,7.67v-50.6q10.72-2.76,24.07-5.37t27.75-4.52q14.42-1.92,29.13-3.07t28.21-1.15a255,255,0,0,1,48.91,4.38q22.38,4.37,38.56,13.56t25.3,23.31q9.12,14.1,9.12,33.58V318Zm0-96.13q-32.81,1.23-55.73,3.52t-38.1,5.37q-15.18,3.08-23.84,6.59t-13,7.21q-4.29,3.67-5.29,7.36a26.11,26.11,0,0,0-1,6.75,14,14,0,0,0,2,7.12,16.61,16.61,0,0,0,7,6.06,47.66,47.66,0,0,0,13.26,4.14,117.83,117.83,0,0,0,20.85,1.53,171.61,171.61,0,0,0,27.29-2.14,178.94,178.94,0,0,0,25.3-5.91,159.38,159.38,0,0,0,22.46-8.89,137.89,137.89,0,0,0,18.78-11Z"/><path class="cls-7" d="M1712.22,227.85q0,13.18,2.45,21.54a27.71,27.71,0,0,0,8,13.26A30.49,30.49,0,0,0,1737,269.4a108.84,108.84,0,0,0,21.7,1.84h107.93V318H1747q-24.82,0-42.23-4.06t-28.45-12.57a48.65,48.65,0,0,1-16-21.55q-5-13-5-31V107.34h56.88Z"/></g></g><g id="gendrin" class="cls-6"><g class="cls-6"><path class="cls-7" d="M612,403.76a193.63,193.63,0,0,1,22.29,1.2,174.44,174.44,0,0,1,19.78,3.4,184.77,184.77,0,0,1,18.39,5.29q9,3.09,18,6.86v19.15a170,170,0,0,0-15.32-8.56A127.26,127.26,0,0,0,657.66,424a140.53,140.53,0,0,0-20.17-4.79,144.14,144.14,0,0,0-23.14-1.76q-25.22,0-44,5.29T539.09,437.9a62.08,62.08,0,0,0-18.72,23.93,77.71,77.71,0,0,0-6.24,31.75A74.75,74.75,0,0,0,520.25,524a63.49,63.49,0,0,0,18.53,24q12.42,10.08,31.07,15.75t43.75,5.67q9.84,0,19.48-.76t18.22-1.95q8.57-1.2,15.63-2.65t12-3V508.57H608.49V493.83h86.17v76.09q-9.33,3.29-18.84,5.8t-19.65,4.22q-10.14,1.69-21,2.58t-22.86.88a178.6,178.6,0,0,1-45.35-5.48Q546,572.44,530.7,561.29a78.71,78.71,0,0,1-24-28Q498,516.39,498,493.58a90.36,90.36,0,0,1,4-27.78,77.25,77.25,0,0,1,29.16-40,102.71,102.71,0,0,1,23.06-12.28,142.18,142.18,0,0,1,27.27-7.31A184.5,184.5,0,0,1,612,403.76Z"/><path class="cls-7" d="M918.37,570.93q-10.59,3.27-19.66,5.61t-17.88,3.77q-8.82,1.46-18,2.15t-20.09.69q-25.46,0-46-6.17t-35-17.7a78.61,78.61,0,0,1-22.23-27.91q-7.82-16.36-7.82-36.78a86.63,86.63,0,0,1,7.5-36.28,83,83,0,0,1,21-28.35,96.32,96.32,0,0,1,32.25-18.39A125,125,0,0,1,834,405q23.56,0,41.95,6.3t31,18a76.25,76.25,0,0,1,19.15,28.41q6.56,16.69,6.55,37.6v3.91H747.92a77.4,77.4,0,0,0,8.07,29.1,63.09,63.09,0,0,0,19,22q12.3,9.06,30.26,13.92t41.92,4.85a156.26,156.26,0,0,0,20.67-1.39,188.19,188.19,0,0,0,20.05-3.72,153.55,153.55,0,0,0,17.52-5.29,72.75,72.75,0,0,0,13-6.11Zm-1.26-85.41a78.47,78.47,0,0,0-5.93-25.26A60.12,60.12,0,0,0,896.12,439q-10-9.19-25.47-14.61t-37-5.42q-20.29,0-35.55,5.42A80.14,80.14,0,0,0,772.25,439a68.23,68.23,0,0,0-16.64,21.16,77,77,0,0,0-7.69,25.39Z"/><path class="cls-7" d="M1145.23,580V465.74q0-14.36-3.85-23.62a34.63,34.63,0,0,0-11-14.68,42.65,42.65,0,0,0-17.32-7.56,112.55,112.55,0,0,0-22.93-2.14,117.48,117.48,0,0,0-28.91,3.59,175.34,175.34,0,0,0-26.77,9.07,172.91,172.91,0,0,0-23.18,12.16,160.59,160.59,0,0,0-17.89,12.85V580H977.68V406.91h15.74v30.36q8.82-5.55,19.47-11.65a199.27,199.27,0,0,1,22.92-11.22,168.53,168.53,0,0,1,26.27-8.37,128.55,128.55,0,0,1,29.48-3.28q17.51,0,30.55,4.22a59.35,59.35,0,0,1,21.67,12,48.44,48.44,0,0,1,12.91,18.77,67.64,67.64,0,0,1,4.28,24.63V580Z"/><path class="cls-7" d="M1406.35,493.33a114.35,114.35,0,0,1-3.46,29.54,76.93,76.93,0,0,1-9.77,22.49,63.54,63.54,0,0,1-15.3,16.25,79.14,79.14,0,0,1-20,10.71,117.46,117.46,0,0,1-23.94,5.85A193.52,193.52,0,0,1,1306.7,580h-89.31V406.91h89.06a177.67,177.67,0,0,1,39.56,4.16,82.91,82.91,0,0,1,31.68,14.17,67.62,67.62,0,0,1,21,26.64Q1406.35,468.52,1406.35,493.33Zm-16.12.06a101.13,101.13,0,0,0-2.78-25,63.46,63.46,0,0,0-7.94-18.85,49.93,49.93,0,0,0-12.61-13.43,65.73,65.73,0,0,0-16.77-8.76,95.15,95.15,0,0,0-20.3-4.73,185,185,0,0,0-23.32-1.39h-73.38V565.64h73.38a159.71,159.71,0,0,0,33.91-3.34,67.41,67.41,0,0,0,26.42-11.6,54.86,54.86,0,0,0,17.21-22.19Q1390.23,514.58,1390.23,493.39Z"/><path class="cls-7" d="M1569.28,417.8a86.36,86.36,0,0,0-16.69-1.32,98.2,98.2,0,0,0-26.52,3.47,106,106,0,0,0-23.06,9.38,116.46,116.46,0,0,0-19.71,13.8,142.25,142.25,0,0,0-16.38,16.69V580h-15.75V406.91h15.75v35.27a149.24,149.24,0,0,1,18.33-16,126.54,126.54,0,0,1,20.85-12.53,119.19,119.19,0,0,1,23-8.19,104,104,0,0,1,24.88-3q4.41,0,7.94.19t6.49.5q3,.31,5.6.69c1.77.26,3.57.55,5.42.89v15.49Q1575.76,419.14,1569.28,417.8Z"/><path class="cls-7" d="M1607.49,580V406.91h15.74V580Z"/><path class="cls-7" d="M1848.08,580V465.74q0-14.36-3.84-23.62a34.79,34.79,0,0,0-11-14.68,42.69,42.69,0,0,0-17.33-7.56,112.52,112.52,0,0,0-22.92-2.14,117.5,117.5,0,0,0-28.92,3.59,175.71,175.71,0,0,0-26.77,9.07,172.77,172.77,0,0,0-23.17,12.16,159.66,159.66,0,0,0-17.89,12.85V580h-15.75V406.91h15.75v30.36q8.81-5.55,19.46-11.65a199.44,199.44,0,0,1,22.93-11.22,168.41,168.41,0,0,1,26.26-8.37,128.61,128.61,0,0,1,29.48-3.28q17.5,0,30.55,4.22a59.27,59.27,0,0,1,21.67,12,48.33,48.33,0,0,1,12.91,18.77,67.43,67.43,0,0,1,4.29,24.63V580Z"/></g></g></g></g></g></svg>