<?xml version="1.0" encoding="UTF-8"?>
<svg width="16px" height="16px" viewBox="0 0 16 16" version="1.1" xmlns="http://www.w3.org/2000/svg" xmlns:xlink="http://www.w3.org/1999/xlink">
    <title>011-instagram</title>
    <defs>
        <filter id="filter-1">
            <feColorMatrix in="SourceGraphic" type="matrix" values="0 0 0 0 0.800000 0 0 0 0 0.419608 0 0 0 0 0.894118 0 0 0 1.000000 0"></feColorMatrix>
        </filter>
    </defs>
    <g id="Dekstop" stroke="none" stroke-width="1" fill="none" fill-rule="evenodd">
        <g id="Artboard" transform="translate(-1168.000000, -48.000000)">
            <g id="Group-6" transform="translate(1168.000000, 48.000000)">
                <g filter="url(#filter-1)" id="011-instagram">
                    <g>
                        <path d="M15.9593348,4.70405811 C15.9218446,3.85391388 15.7843399,3.26944735 15.5873638,2.76299927 C15.3841598,2.22541703 15.0715381,1.74412038 14.661955,1.3440166 C14.2617748,0.937686002 13.7772113,0.621949559 13.2457545,0.421958701 C12.7362789,0.22502023 12.1547538,0.0875417713 11.3044474,0.0500587423 C10.4477908,0.00940127112 10.1758344,0 8.00311401,0 C5.8303936,0 5.55843719,0.00940127112 4.7049557,0.0468843001 C3.85464925,0.0843673291 3.2700712,0.221967843 2.76364855,0.418784259 C2.22584167,0.621949559 1.74445317,0.93451156 1.34427306,1.3440166 C0.937864923,1.74412038 0.622190313,2.22859148 0.422039215,2.75994688 C0.225063166,3.26944735 0.0875584752,3.85073944 0.0500682941,4.70088367 C0.00940306498,5.55737679 0,5.82928132 0,8.00158722 C0,10.1738931 0.00940306498,10.4457977 0.0468932461,11.2991163 C0.0843834273,12.1492606 0.222010197,12.7337271 0.418986246,13.2401752 C0.622190313,13.7777574 0.937864923,14.2590541 1.34427306,14.6591578 C1.74445317,15.0654884 2.22901672,15.3812249 2.76047351,15.5812157 C3.2700712,15.7781542 3.8514742,15.9156327 4.70190273,15.9531157 C5.55526214,15.9907208 5.82734063,16 8.00006104,16 C10.1727814,16 10.4447379,15.9907208 11.2982194,15.9531157 C12.1485258,15.9156327 12.7331039,15.7781542 13.2395265,15.5812157 C14.3150182,15.1654839 15.1653246,14.3153396 15.5811358,13.2401752 C15.7779898,12.7306747 15.9156166,12.1492606 15.9531068,11.2991163 C15.9905969,10.4457977 16,10.1738931 16,8.00158722 C16,5.82928132 15.996825,5.55737679 15.9593348,4.70405811 Z M14.5182223,11.2366039 C14.483785,12.0180089 14.3525084,12.4399676 14.2430908,12.7212734 C13.9741874,13.4183111 13.4208715,13.9715214 12.7237008,14.2403736 C12.4423413,14.3497703 12.0172491,14.4810219 11.238748,14.5153305 C10.3946696,14.5529356 10.1415193,14.5622148 8.00628906,14.5622148 C5.87105883,14.5622148 5.6147335,14.5529356 4.77370804,14.5153305 C3.99215394,14.4810219 3.57011472,14.3497703 3.28875525,14.2403736 C2.94181847,14.1121743 2.62602178,13.909009 2.36969645,13.6433313 C2.10396806,13.3838805 1.90076399,13.0713185 1.77254029,12.7244479 C1.66312271,12.4431421 1.53184604,12.0180089 1.49753091,11.2397784 C1.45991865,10.395861 1.45063766,10.1426369 1.45063766,8.00781405 C1.45063766,5.87299117 1.45991865,5.61671474 1.49753091,4.77597178 C1.53184604,3.99456678 1.66312271,3.57260808 1.77254029,3.29130228 C1.90076399,2.94430964 2.10396806,2.62869525 2.3728715,2.37229676 C2.6322498,2.10661906 2.94487144,1.90345376 3.2919303,1.77537658 C3.57328977,1.66597988 3.99850404,1.53472825 4.77688309,1.5002976 C5.62096152,1.46281457 5.87423388,1.4534133 8.00934203,1.4534133 C10.1477473,1.4534133 10.4008976,1.46281457 11.241923,1.5002976 C12.0234771,1.53472825 12.4455164,1.66597988 12.7268758,1.77537658 C13.0738126,1.90345376 13.3896093,2.10661906 13.6459346,2.37229676 C13.911663,2.63174764 14.1148671,2.94430964 14.2430908,3.29130228 C14.3525084,3.57260808 14.483785,3.99761917 14.5182223,4.77597178 C14.5557124,5.61988919 14.5651155,5.87299117 14.5651155,8.00781405 C14.5651155,10.1426369 14.5557124,10.3926865 14.5182223,11.2366039 Z" id="Shape" fill="#000000" fill-rule="nonzero"></path>
                        <path d="M8,4 C5.79170625,4 4,5.79158747 4,8 C4,10.2084125 5.79170625,12 8,12 C10.2084125,12 12,10.2084125 12,8 C12,5.79158747 10.2084125,4 8,4 Z M8,10.5947006 C6.56737165,10.5947006 5.40529944,9.43274713 5.40529944,8 C5.40529944,6.56725287 6.56737165,5.40529944 8,5.40529944 C9.43274713,5.40529944 10.5947006,6.56725287 10.5947006,8 C10.5947006,9.43274713 9.43274713,10.5947006 8,10.5947006 L8,10.5947006 Z" id="Shape" fill="#000000" fill-rule="nonzero"></path>
                        <path d="M13,4 C13,4.5522331 12.5522616,5 11.9999364,5 C11.4477384,5 11,4.5522331 11,4 C11,3.44763966 11.4477384,3 11.9999364,3 C12.5522616,3 13,3.44763966 13,4 L13,4 Z" id="Path" fill="#000000" fill-rule="nonzero"></path>
                    </g>
                </g>
            </g>
        </g>
    </g>
</svg>