<?xml version="1.0" encoding="UTF-8"?>
<svg width="16px" height="14px" viewBox="0 0 16 14" version="1.1" xmlns="http://www.w3.org/2000/svg" xmlns:xlink="http://www.w3.org/1999/xlink">
    <title>013-twitter</title>
    <defs>
        <filter id="filter-1">
            <feColorMatrix in="SourceGraphic" type="matrix" values="0 0 0 0 0.478431 0 0 0 0 0.000000 0 0 0 0 1.000000 0 0 0 1.000000 0"></feColorMatrix>
        </filter>
    </defs>
    <g id="Dekstop" stroke="none" stroke-width="1" fill="none" fill-rule="evenodd">
        <g id="Artboard" transform="translate(-1360.000000, -49.000000)">
            <g id="Group-6" transform="translate(1168.000000, 48.000000)">
                <g filter="url(#filter-1)" id="013-twitter">
                    <g transform="translate(192.000000, 1.000000)">
                        <path d="M5.03186747,14 C11.0698932,14 14.3718299,8.61416909 14.3718299,3.94406111 C14.3718299,3.79109824 14.3688945,3.63876744 14.3625345,3.48727944 C15.0034307,2.98835924 15.5604723,2.36576246 16,1.65709772 C15.4118431,1.93868844 14.7787746,2.12799579 14.1148843,2.21364234 C14.792571,1.77592838 15.31292,1.083803 15.5583197,0.258730577 C14.924077,0.663576514 14.2216351,0.957703456 13.4738902,1.11656572 C12.8748723,0.429602331 12.0219421,0 11.0776231,0 C9.26491397,0 7.79476642,1.5827232 7.79476642,3.53373716 C7.79476642,3.8112194 7.82363122,4.08090599 7.87989308,4.33963657 C5.1516319,4.19183566 2.73227291,2.78556757 1.11339828,0.647037148 C0.831599612,1.16923888 0.668978285,1.77603372 0.668978285,2.42349222 C0.668978285,3.64951278 1.24852465,4.73215696 2.12973258,5.3652884 C1.59118401,5.34748487 1.08531625,5.18830657 0.643048899,4.92336055 C0.642559672,4.93821438 0.642559672,4.95264682 0.642559672,4.96844878 C0.642559672,6.68011588 1.7740596,8.10924416 3.2763009,8.43307875 C3.00037303,8.51387939 2.71006172,8.55738741 2.41065061,8.55738741 C2.19949731,8.55738741 1.99362773,8.53505399 1.79362895,8.49365289 C2.21153247,9.89791941 3.42346242,10.9197788 4.86024424,10.948433 C3.73666989,11.8965499 2.32131652,12.4613116 0.783067619,12.4613116 C0.518489981,12.4613116 0.256945598,12.4449829 0,12.4123255 C1.45282868,13.4149065 3.17796491,14 5.03196531,14" id="Path" fill="#000000" fill-rule="nonzero"></path>
                    </g>
                </g>
            </g>
        </g>
    </g>
</svg>