<?xml version="1.0" encoding="UTF-8"?>
<svg width="16px" height="16px" viewBox="0 0 16 16" version="1.1" xmlns="http://www.w3.org/2000/svg" xmlns:xlink="http://www.w3.org/1999/xlink">
    <title>003-whatsapp</title>
    <defs>
        <filter id="filter-1">
            <feColorMatrix in="SourceGraphic" type="matrix" values="0 0 0 0 0.729412 0 0 0 0 0.329412 0 0 0 0 0.886275 0 0 0 1.000000 0"></feColorMatrix>
        </filter>
    </defs>
    <g id="Dekstop" stroke="none" stroke-width="1" fill="none" fill-rule="evenodd">
        <g id="Artboard" transform="translate(-1216.000000, -48.000000)">
            <g id="Group-6" transform="translate(1168.000000, 48.000000)">
                <g filter="url(#filter-1)" id="003-whatsapp">
                    <g transform="translate(48.000000, 0.000000)">
                        <path d="M13.668823,2.3251953 C12.1647511,0.8265625 10.164457,0.000878905 8.03345948,0 C3.64233083,0 0.0685899265,3.55654298 0.0668236499,7.92783202 C0.0662349078,9.3251953 0.433029061,10.6892578 1.13021275,11.8916015 L0,16 L4.22323545,14.8974609 C5.38690906,15.5291992 6.69698635,15.8621094 8.03022133,15.8625 L8.03355762,15.8625 C12.4241956,15.8625 15.9983291,12.3056641 16,7.9341797 C16.0008803,5.815625 15.1729931,3.82373048 13.668823,2.3251953 Z M8.03345948,14.5235352 L8.03071195,14.5235352 C6.84260501,14.5230469 5.67736137,14.2052735 4.66058205,13.6049805 L4.41889824,13.4621094 L1.91276582,14.1164063 L2.58168928,11.684668 L2.42419739,11.4353516 C1.76135776,10.3861328 1.4113431,9.1734375 1.4119311,7.9283203 C1.41330562,4.29501953 4.38376923,1.3390625 8.03610888,1.3390625 C9.80472794,1.33964845 11.467273,2.02597655 12.7173955,3.27158203 C13.9675179,4.5171875 14.6555759,6.17285155 14.6549875,7.9336914 C14.6534171,11.5672852 11.6831498,14.5235352 8.03345948,14.5235352 L8.03345948,14.5235352 Z M11.6654871,9.58808595 C11.466488,9.4888672 10.4877815,9.00976562 10.3052675,8.9435547 C10.1229498,8.8774414 9.99008753,8.84453125 9.85751959,9.04277345 C9.72475542,9.24101562 9.34334051,9.6873047 9.22715958,9.8194336 C9.11097866,9.95166015 8.994994,9.96826173 8.7958968,9.86904297 C8.59679957,9.76992187 7.95544948,9.56064453 7.19507281,8.8857422 C6.60337437,8.36044922 6.20390431,7.71171875 6.08772339,7.51347655 C5.97173871,7.31503905 6.08674215,7.21816405 6.17505532,7.1091797 C6.39053956,6.8428711 6.60631813,6.56367188 6.67265116,6.43154298 C6.73908233,6.2993164 6.70581769,6.18359375 6.65596979,6.08447265 C6.60631813,5.98535155 6.20822185,5.0102539 6.04238927,4.61347655 C5.88067798,4.22734375 5.71670982,4.2794922 5.59444509,4.2734375 C5.47846043,4.26767578 5.34569626,4.2665039 5.21293206,4.2665039 C5.080266,4.2665039 4.86458555,4.31601563 4.6820716,4.51445313 C4.49965577,4.71279298 3.98547668,5.1919922 3.98547668,6.16708985 C3.98547668,7.1421875 4.69875297,8.0841797 4.79825252,8.21640625 C4.89775205,8.3486328 6.2019418,10.3496094 8.19870329,11.2076172 C8.67363207,11.4119141 9.04435127,11.5336914 9.33352795,11.625 C9.81041922,11.7757813 10.2442333,11.7544922 10.587281,11.7035156 C10.9697753,11.646582 11.7648885,11.2242188 11.9309173,10.7615235 C12.0967499,10.2987305 12.0967499,9.90214845 12.046902,9.8194336 C11.9972504,9.7368164 11.8644862,9.6873047 11.6654871,9.58808595 L11.6654871,9.58808595 Z" id="Shape" fill="#000000" fill-rule="nonzero"></path>
                    </g>
                </g>
            </g>
        </g>
    </g>
</svg>