<?xml version="1.0" encoding="UTF-8"?>
<svg width="848px" height="230px" viewBox="0 0 848 230" version="1.1" xmlns="http://www.w3.org/2000/svg" xmlns:xlink="http://www.w3.org/1999/xlink">
    <title>Group 7</title>
    <defs>
        <linearGradient x1="50.0366954%" y1="100.016503%" x2="50.0366954%" y2="-0.00528319094%" id="linearGradient-1">
            <stop stop-color="#808080" stop-opacity="0.25" offset="0%"></stop>
            <stop stop-color="#808080" stop-opacity="0.12" offset="54%"></stop>
            <stop stop-color="#808080" stop-opacity="0.1" offset="100%"></stop>
        </linearGradient>
        <filter id="filter-2">
            <feColorMatrix in="SourceGraphic" type="matrix" values="0 0 0 0 0.741176 0 0 0 0 0.337255 0 0 0 0 0.807843 0 0 0 1.000000 0"></feColorMatrix>
        </filter>
    </defs>
    <g id="Dekstop" stroke="none" stroke-width="1" fill="none" fill-rule="evenodd">
        <g id="Group-7">
            <ellipse id="Oval" fill="#7A00FF" fill-rule="nonzero" opacity="0.1" cx="151.5" cy="227" rx="95.5" ry="3"></ellipse>
            <g id="55bfdb31-36b5-4718-97dd-773b4157bdc7" transform="translate(737.000000, 85.000000)">
                <path d="M2,140 C2,140 26.7047435,108.677711 24.7922556,77.5430067 C23.9872217,64.4718025 27.2030978,51.4602842 34.3887706,40.5164547 C37.8068727,35.3319524 41.6936158,30.4727142 46,26" id="Path" stroke="#535461" stroke-width="2"></path>
                <path d="M45.5745558,5.4407048 C43.8215497,9.88666327 46.6391864,26 46.6391864,26 C46.6391864,26 59.6328103,16.3467888 61.3858165,11.9051806 C62.520774,9.02991862 62.0618984,5.75700592 60.1820437,3.31931704 C58.3021891,0.881628162 55.2869499,-0.350493966 52.2721378,0.0870791388 C49.2573256,0.524652244 46.7009621,2.56544282 45.5660046,5.4407048 L45.5745558,5.4407048 Z" id="Path" fill="#7A00FF" fill-rule="nonzero"></path>
                <path d="M22.1403866,24.8888121 C23.0445454,29.4307288 34.0444297,41 34.0444297,41 C34.0444297,41 39.8079064,26.2219488 38.9037476,21.6800321 C37.9535087,17.1859777 33.4969915,14.2778858 28.9067767,15.1565276 C24.3165619,16.0351694 21.3001948,20.3736929 22.1403866,24.8888121 L22.1403866,24.8888121 Z" id="Path" fill="#7A00FF" fill-rule="nonzero"></path>
                <path d="M6.16154222,65.9830537 C9.32375852,69.4683156 25,74 25,74 C25,74 22.3336471,58.3374185 19.1714307,54.8521566 C17.1256023,52.597746 13.9953434,51.5733427 10.9597923,52.1648295 C7.92424123,52.7563162 5.44457039,54.8738322 4.45484788,57.7197295 C3.46512536,60.5656269 4.11571357,63.7075461 6.16154222,65.9619564 L6.16154222,65.9830537 Z" id="Path" fill="#7A00FF" fill-rule="nonzero"></path>
                <path d="M1.28566655,99.9338166 C3.72838796,103.906619 17.9994692,111 17.9994692,111 C17.9994692,111 18.0968393,95.0451923 15.6541179,91.07239 C14.0847994,88.4774985 11.246988,86.9242807 8.21884366,87.0028452 C5.19069934,87.0814098 2.43699186,88.7796983 1.0039278,91.452486 C-0.429136254,94.1252737 -0.321605396,97.362332 1.28566655,99.9338166 L1.28566655,99.9338166 Z" id="Path" fill="#7A00FF" fill-rule="nonzero"></path>
                <path d="M50.9057371,48.3915068 C46.6146548,50.1780714 31,47.4618077 31,47.4618077 C31,47.4618077 40.2643583,34.3774713 44.5428074,32.5909067 C48.8116567,30.8887536 53.6331231,32.9871081 55.3713918,37.3036242 C57.1096605,41.6201403 55.1213116,46.5570602 50.9057371,48.3915068 Z" id="Path" fill="#7A00FF" fill-rule="nonzero"></path>
                <path d="M44.0461773,87.9840983 C39.3338977,88.3850934 25,81.0690657 25,81.0690657 C25,81.0690657 37.8987944,71.4451832 42.5939384,71.0441881 C45.662207,70.7318584 48.661111,72.0916934 50.4389115,74.6014438 C52.2167121,77.1111942 52.4969985,80.3806465 51.1721257,83.1541568 C49.847253,85.927667 47.1232111,87.7740126 44.0461773,87.9840983 Z" id="Path" fill="#7A00FF" fill-rule="nonzero"></path>
                <path d="M32.8670908,126.811106 C28.3217736,128.002589 13,123.167835 13,123.167835 C13,123.167835 24.0367984,111.416459 28.5821157,110.220675 C33.0720563,109.177885 37.5695036,111.927771 38.7258807,116.422905 C39.8822579,120.918038 37.2770735,125.523861 32.8500192,126.811106 L32.8670908,126.811106 Z" id="Path" fill="#7A00FF" fill-rule="nonzero"></path>
                <path d="M45.5745558,5.4407048 C43.8215497,9.88666327 46.6391864,26 46.6391864,26 C46.6391864,26 59.6328103,16.3467888 61.3858165,11.9051806 C62.520774,9.02991862 62.0618984,5.75700592 60.1820437,3.31931704 C58.3021891,0.881628162 55.2869499,-0.350493966 52.2721378,0.0870791388 C49.2573256,0.524652244 46.7009621,2.56544282 45.5660046,5.4407048 L45.5745558,5.4407048 Z" id="Path" fill="#000000" fill-rule="nonzero" opacity="0.25"></path>
                <path d="M22.1403866,24.8888121 C23.0445454,29.4307288 34.0444297,41 34.0444297,41 C34.0444297,41 39.8079064,26.2219488 38.9037476,21.6800321 C37.9535087,17.1859777 33.4969915,14.2778858 28.9067767,15.1565276 C24.3165619,16.0351694 21.3001948,20.3736929 22.1403866,24.8888121 L22.1403866,24.8888121 Z" id="Path" fill="#000000" fill-rule="nonzero" opacity="0.25"></path>
                <path d="M6.16154222,65.9830537 C9.32375852,69.4683156 25,74 25,74 C25,74 22.3336471,58.3374185 19.1714307,54.8521566 C17.1256023,52.597746 13.9953434,51.5733427 10.9597923,52.1648295 C7.92424123,52.7563162 5.44457039,54.8738322 4.45484788,57.7197295 C3.46512536,60.5656269 4.11571357,63.7075461 6.16154222,65.9619564 L6.16154222,65.9830537 Z" id="Path" fill="#000000" fill-rule="nonzero" opacity="0.25"></path>
                <path d="M1.28566655,99.9338166 C3.72838796,103.906619 17.9994692,111 17.9994692,111 C17.9994692,111 18.0968393,95.0451923 15.6541179,91.07239 C14.0847994,88.4774985 11.246988,86.9242807 8.21884366,87.0028452 C5.19069934,87.0814098 2.43699186,88.7796983 1.0039278,91.452486 C-0.429136254,94.1252737 -0.321605396,97.362332 1.28566655,99.9338166 L1.28566655,99.9338166 Z" id="Path" fill="#000000" fill-rule="nonzero" opacity="0.25"></path>
                <path d="M50.9057371,48.3915068 C46.6146548,50.1780714 31,47.4618077 31,47.4618077 C31,47.4618077 40.2643583,34.3774713 44.5428074,32.5909067 C48.8116567,30.8887536 53.6331231,32.9871081 55.3713918,37.3036242 C57.1096605,41.6201403 55.1213116,46.5570602 50.9057371,48.3915068 Z" id="Path" fill="#000000" fill-rule="nonzero" opacity="0.25"></path>
                <path d="M44.0461773,87.9840983 C39.3338977,88.3850934 25,81.0690657 25,81.0690657 C25,81.0690657 37.8987944,71.4451832 42.5939384,71.0441881 C45.662207,70.7318584 48.661111,72.0916934 50.4389115,74.6014438 C52.2167121,77.1111942 52.4969985,80.3806465 51.1721257,83.1541568 C49.847253,85.927667 47.1232111,87.7740126 44.0461773,87.9840983 Z" id="Path" fill="#000000" fill-rule="nonzero" opacity="0.25"></path>
                <path d="M32.8670908,126.811106 C28.3217736,128.002589 13,123.167835 13,123.167835 C13,123.167835 24.0367984,111.416459 28.5821157,110.220675 C33.0720563,109.177885 37.5695036,111.927771 38.7258807,116.422905 C39.8822579,120.918038 37.2770735,125.523861 32.8500192,126.811106 L32.8670908,126.811106 Z" id="Path" fill="#000000" fill-rule="nonzero" opacity="0.25"></path>
                <path d="M2,139 C2,139 37.5207101,120.255923 48.4514793,90.8021718 C53.041716,78.4349457 61.3213018,67.7682132 72.3850592,60.626999 C77.6485229,57.2494139 83.2100845,54.3616765 89,52" id="Path" stroke="#535461" stroke-width="2"></path>
                <path d="M96.3490461,33.3073406 C92.9162966,36.5503331 89,52 89,52 C89,52 105.018045,48.6174785 108.455151,45.3871705 C111.814384,42.1287883 111.852833,36.8553618 108.541447,33.5511631 C105.230061,30.2469644 99.797847,30.1383315 96.3490461,33.3073406 L96.3490461,33.3073406 Z" id="Path" fill="#7A00FF" fill-rule="nonzero"></path>
                <path d="M68.1377293,40.8980677 C67.0909095,45.5586929 72.3549179,61 72.3549179,61 C72.3549179,61 83.6904815,49.415762 84.7458468,44.7551368 C85.4931607,41.7143554 84.5652688,38.5004349 82.3199304,36.3525387 C80.0745921,34.2046426 76.8625523,33.4582945 73.9222496,34.4012574 C70.9819468,35.3442203 68.7726868,37.8291936 68.1462748,40.8980677 L68.1377293,40.8980677 Z" id="Path" fill="#7A00FF" fill-rule="nonzero"></path>
                <path d="M36.4474522,73.1506554 C37.8581825,77.6054588 50.0759623,88 50.0759623,88 C50.0759623,88 54.1115061,72.5481963 52.7007758,68.0933929 C51.837436,65.1488192 49.4353332,62.8989736 46.4233935,62.2139019 C43.4114538,61.5288303 40.2618585,62.5159313 38.192599,64.7934794 C36.1233396,67.0710276 35.4588135,70.2819721 36.4560021,73.1845968 L36.4474522,73.1506554 Z" id="Path" fill="#7A00FF" fill-rule="nonzero"></path>
                <path d="M18.0732312,101.774104 C18.7057318,106.48583 28.9753196,119 28.9753196,119 C28.9753196,119 35.5823869,104.173194 34.9584336,99.4571457 C34.5492435,96.4070618 32.5623927,93.8094729 29.7463088,92.6428657 C26.9302249,91.4762584 23.712738,91.9178682 21.3058442,93.801345 C18.8989505,95.6848217 17.6683145,98.7240204 18.0775048,101.774104 L18.0732312,101.774104 Z" id="Path" fill="#7A00FF" fill-rule="nonzero"></path>
                <path d="M83.2751756,74.999122 C78.5272557,74.8668614 65,65.9798015 65,65.9798015 C65,65.9798015 79.0149965,57.8735058 83.7629165,58.0014999 C88.4622367,58.1989588 92.1298315,62.0905792 91.9964758,66.7379849 C91.8631201,71.3853906 87.9782637,75.0652698 83.2751756,74.999122 L83.2751756,74.999122 Z" id="Path" fill="#7A00FF" fill-rule="nonzero"></path>
                <path d="M61.7428546,108.589186 C57.2425409,107.044706 47,94.4651533 47,94.4651533 C47,94.4651533 62.8636058,90.8384217 67.3682468,92.3829017 C71.764583,94.0012978 74.055381,98.8148531 72.5260412,103.220753 C70.9967014,107.626653 66.2074251,110.011005 61.7428546,108.589186 L61.7428546,108.589186 Z" id="Path" fill="#7A00FF" fill-rule="nonzero"></path>
                <path d="M36.0599749,138.909839 C31.3264203,138.147465 19,127.517069 19,127.517069 C19,127.517069 34.1334269,121.302442 38.8669815,122.064816 C43.5281869,122.89824 46.6501534,127.248003 45.8845779,131.84227 C45.1190025,136.436536 40.7482637,139.580734 36.0599749,138.909839 L36.0599749,138.909839 Z" id="Path" fill="#7A00FF" fill-rule="nonzero"></path>
            </g>
            <polygon id="Path" fill="#464353" fill-rule="nonzero" points="230 226 226.86161 226 203.905724 107.585304 200.961936 226 197.628945 226 193.899675 107.783293 171.531131 226 168 226 183.203675 104.290213 183.699024 100.333982 213.52257 97 214.449581 104.290213"></polygon>
            <rect id="Rectangle" fill="#464353" fill-rule="nonzero" x="148" y="73" width="19" height="12"></rect>
            <path d="M258,67.6229078 L269.196503,63 L271.650483,63 C272.395801,63 273,63.617764 273,64.3798145 L273,96.6201855 C273,97.382236 272.395801,98 271.650483,98 L269.196503,98 L258,93.2324057 L258,67.6229078 Z" id="Path" fill="#464353" fill-rule="nonzero"></path>
            <rect id="Rectangle" fill="#464353" fill-rule="nonzero" x="234" y="69" width="23" height="23"></rect>
            <rect id="Rectangle" fill="#514E7F" fill-rule="nonzero" x="194" y="26" width="15" height="3"></rect>
            <rect id="Rectangle" fill="#514E7F" fill-rule="nonzero" x="176" y="30" width="43" height="31"></rect>
            <rect id="Rectangle" fill="#000000" fill-rule="nonzero" opacity="0.1" x="176" y="57" width="43" height="4"></rect>
            <rect id="Rectangle" fill="#000000" fill-rule="nonzero" opacity="0.1" x="234" y="69" width="1" height="23"></rect>
            <rect id="Rectangle" fill="#000000" fill-rule="nonzero" opacity="0.1" x="160" y="73" width="6" height="12"></rect>
            <polygon id="Path" fill="#000000" fill-rule="nonzero" opacity="0.1" points="214 104 183 104 183.491451 100.201261 213.080285 97"></polygon>
            <rect id="Rectangle" fill="#514E7F" fill-rule="nonzero" x="160" y="58" width="74" height="45" rx="10.7"></rect>
            <path d="M257.783505,67 L258,67 L258,93 L257.783505,93 C256.798502,93 256,92.1674976 256,91.1405539 L256,68.8594461 C256,67.8325024 256.798502,67 257.783505,67 Z" id="Path" fill="#514E7F" fill-rule="nonzero"></path>
            <path d="M269,63 L271.442831,63 C272.302832,63 273,63.6776658 273,64.5136089 L273,96.4863911 C273,97.3223342 272.302832,98 271.442831,98 L269,98 L269,63 Z" id="Path" fill="#514E7F" fill-rule="nonzero"></path>
            <rect id="Rectangle" fill="#000000" fill-rule="nonzero" opacity="0.1" x="148" y="73" width="3" height="12"></rect>
            <rect id="Rectangle" fill="#514E7F" fill-rule="nonzero" x="144" y="69" width="7" height="20" rx="3.5"></rect>
            <circle id="Oval" fill="#464353" fill-rule="nonzero" cx="176" cy="30" r="21"></circle>
            <circle id="Oval" fill="#7A00FF" fill-rule="nonzero" cx="176" cy="30" r="16"></circle>
            <circle id="Oval" fill="#464353" fill-rule="nonzero" cx="215.5" cy="30.5" r="15.5"></circle>
            <circle id="Oval" fill="#7A00FF" fill-rule="nonzero" cx="215.5" cy="30.5" r="11.5"></circle>
            <circle id="Oval" fill="#7A00FF" fill-rule="nonzero" cx="214" cy="65" r="2"></circle>
            <circle id="Oval" fill="#7A00FF" fill-rule="nonzero" opacity="0.5" cx="221" cy="65" r="2"></circle>
            <path d="M194.958255,71.5856697 L194.812998,71.2988965 C195.711325,71.5972097 196.573925,71.9937805 197.385103,72.4813935 C197.030819,69.404777 185.22252,60.7661761 183.096814,60.7661761 C180.971108,60.7661761 178.608031,57.0983112 178.608031,57.0983112 C178.608031,57.0983112 172.468283,56.1530217 171.522343,55.1510856 C170.576404,54.1491495 164.199285,54.7333172 162.665234,55.0873582 C161.131182,55.4413992 158.768106,54.1420687 158.768106,54.1420687 C158.768106,54.1420687 157.467882,52.0178226 155.816917,52.0178226 C154.165951,52.0178226 152.398072,49.6528286 152.398072,49.6528286 C152.398072,49.6528286 150.856935,48.2366645 149.439798,47.9959166 C148.02266,47.7551687 146.251238,46.2257115 145.422213,45.0396741 C144.593188,43.8536367 140.462232,43.269469 138.102698,43.62351 C135.743164,43.977551 129.362502,43.1420142 129.362502,43.1420142 C131.959407,41.9595172 132.58649,39.1201082 132.58649,39.1201082 C130.262384,38.9997343 124.154522,33.8732203 124.154522,33.8732203 C124.154522,33.8732203 124.406064,35.5301323 124.696577,37.8420202 L124.303321,37.3357415 L124.250178,37.3782264 C124.125363,35.7289158 124.107611,34.0732566 124.197036,32.4216522 C124.197036,32.2941974 124.218293,32.1667426 124.225378,32.0357474 C127.308108,29.3368909 128.639661,25.1527437 127.683194,21.1702286 C127.619423,20.9011574 127.545023,20.639167 127.459995,20.3807171 C127.912085,20.5686269 128.38974,20.6879587 128.877132,20.7347581 L129.128674,20.7347581 C129.721555,20.7386592 130.28772,20.488635 130.683983,20.0479185 L130.683983,20.0479185 C130.750387,19.9640252 130.808523,19.8739161 130.857582,19.7788474 C130.869543,19.7607458 130.880199,19.7418157 130.889468,19.7222008 C130.931584,19.6352944 130.967112,19.5453513 130.995753,19.4531296 C131.005684,19.4205239 131.013961,19.387438 131.020553,19.3539981 C131.038458,19.2816015 131.052648,19.2083374 131.063067,19.1344927 C131.063067,19.0743057 131.063067,19.0105783 131.063067,18.946851 C131.063067,18.8831236 131.063067,18.8548003 131.063067,18.808775 C131.048453,18.2644682 130.928128,17.7281866 130.708783,17.229752 C130.336784,16.3163262 129.801815,15.4135216 129.840786,14.4257472 C129.840786,14.3443177 129.8585,14.2664287 129.869129,14.1885397 C129.968328,13.4131898 130.375755,12.6944866 130.620212,11.94746 L130.620212,11.9155963 C130.65564,11.8058436 130.683983,11.6960909 130.708783,11.5863382 C130.720325,11.5539287 130.729792,11.5208179 130.737125,11.4872067 C130.763518,11.3575302 130.781271,11.2262467 130.790268,11.0942212 C130.790268,11.0942212 130.790268,11.0765191 130.790268,11.0658979 C130.882382,9.58600642 129.688444,8.2937567 128.335077,7.69542738 C127.123425,7.15728503 125.738173,7.01212821 124.629263,6.2792633 C123.364467,5.4472669 122.67007,4.00631996 121.734759,2.81320172 C120.374307,1.07840073 118.245058,-0.217389401 116.066209,0.030439312 C114.723471,0.18267695 113.504733,0.887218578 112.169081,1.15983016 C110.139032,1.58113898 107.992068,0.968648013 105.972647,1.43952257 C105.482318,1.52093368 105.03604,1.77147914 104.711395,2.14760461 C104.575714,2.33742687 104.488179,2.55732955 104.45631,2.78841885 L104.45631,2.78841885 C104.427881,3.00226431 104.427881,3.21892804 104.45631,3.43277351 L104.45631,3.45047556 C104.479152,3.65453231 104.515846,3.85680177 104.566138,4.0558857 L104.598024,4.17980006 C104.598024,4.22228498 104.615738,4.26122949 104.626367,4.30371441 C104.636995,4.34619934 104.672424,4.47011369 104.693681,4.55154313 C104.732652,4.68961912 104.764537,4.82769512 104.799966,4.96931153 L104.799966,5.01887727 C104.831852,5.16403409 104.863737,5.30919091 104.888537,5.45788814 L104.888537,5.45788814 C104.945698,5.76441096 104.983563,6.07421508 105.001908,6.38547561 L105.001908,6.38547561 C105.085245,7.26146275 104.895941,8.14180181 104.459853,8.90624766 C103.574142,10.3224117 101.692892,10.9490643 100.874495,12.4254154 C100.68112,12.7816477 100.560682,13.1728013 100.520211,13.5760487 L100.520211,13.5760487 C100.505474,13.7100519 100.499556,13.8448775 100.502496,13.9796555 L100.502496,14.0327616 C100.502496,14.1495952 100.502496,14.2664287 100.534382,14.3868026 C100.53268,14.4151004 100.53268,14.4434747 100.534382,14.4717725 C100.552547,14.5767884 100.576199,14.6807825 100.605239,14.7833286 C100.605239,14.8187327 100.622953,14.8505964 100.633582,14.8824601 C100.672632,15.0035843 100.719982,15.1218778 100.775295,15.2365011 L100.775295,15.2365011 C101.15438,16.0260126 101.870034,16.677448 102.018834,17.5342273 L102.018834,17.5342273 C102.018834,17.5590102 102.018834,17.583793 102.036548,17.6121163 C102.118033,18.256471 101.85232,18.886664 101.714149,19.5203974 C101.695931,19.5974968 101.681741,19.6754913 101.671635,19.7540645 L101.671635,19.7540645 C101.671635,19.7788474 101.671635,19.8036302 101.671635,19.8284131 C101.671635,19.853196 101.671635,19.9346254 101.671635,19.991272 C101.671635,20.0479185 101.671635,20.0514589 101.671635,20.0833226 C101.671635,20.1151863 101.671635,20.1789137 101.671635,20.224939 C101.669751,20.2579561 101.669751,20.2910535 101.671635,20.3240705 C101.671635,20.3700959 101.671635,20.4161212 101.671635,20.4586061 C101.671635,20.501091 101.671635,20.5223335 101.671635,20.5541972 C101.671635,20.5860609 101.692892,20.6427074 101.707063,20.6851924 L101.731863,20.7737026 C101.748612,20.8159546 101.767532,20.8573144 101.788549,20.897617 L101.82752,20.975506 C101.853427,21.0184281 101.881818,21.0598032 101.912548,21.0994204 C101.925574,21.1191344 101.939771,21.1380505 101.955062,21.1560669 C102.003305,21.2129465 102.057995,21.2640347 102.118033,21.3083046 C102.606946,21.6623456 103.368657,21.5702949 103.768998,22.0163866 C103.814064,22.070412 103.852153,22.1298852 103.882369,22.1934071 L103.903626,22.235892 C103.932868,22.2982479 103.955431,22.3635181 103.97094,22.4306146 L103.97094,22.4306146 C104.027573,22.6967099 104.027573,22.9717328 103.97094,23.2378281 C103.829227,23.9459102 103.528085,24.5902648 103.368657,25.2841852 C103.336771,25.4258016 103.315514,25.5709584 103.2978,25.7161153 L103.2978,25.7161153 C103.2978,25.783383 103.2978,25.8471104 103.280086,25.9108378 L103.280086,25.9533227 C103.280086,26.0135097 103.280086,26.0772371 103.280086,26.1374241 C103.280086,26.197611 103.280086,26.1692878 103.280086,26.1869898 C103.280086,26.2755001 103.280086,26.3675507 103.301343,26.456061 C103.3226,26.5445712 103.301343,26.5410308 103.3226,26.5799753 L103.343857,26.6826472 C103.343857,26.7286726 103.368657,26.7746979 103.382828,26.8207232 L103.414714,26.9092335 C103.432428,26.9587992 103.457228,27.008365 103.478485,27.0579307 C103.488898,27.0810607 103.50073,27.1035261 103.513914,27.1251985 C103.549631,27.197636 103.592348,27.2664109 103.641456,27.3305423 C104.07014,27.9111696 104.775166,28.1058921 105.519163,28.1094325 C105.941076,28.1070498 106.361523,28.0595743 106.77333,27.9678161 C106.865444,28.1837812 106.961101,28.3997462 107.063843,28.6086304 C107.577437,29.6420553 108.250541,30.5882933 109.058464,31.4126352 C109.058464,31.522388 109.037207,31.6286003 109.023036,31.7418934 C108.94155,32.5491069 108.842351,33.4165074 108.72898,34.2909887 C107.811383,33.8696799 107.102814,33.7068211 106.82293,34.0112963 C105.636077,35.3141673 106.82293,39.8104882 106.82293,39.8104882 C106.82293,39.8104882 101.03038,39.8104882 99.6132426,41.1098188 C98.1961051,42.4091493 95.5992006,41.1098188 95.5992006,41.1098188 C95.5992006,41.1098188 90.2849349,41.7046077 90.6392192,42.7702711 C90.9935036,43.8359346 87.8049442,42.7702711 87.8049442,42.7702711 C87.8049442,42.7702711 85.5587812,43.0074786 85.6792379,44.5404762 C85.7996946,46.0734739 82.253308,46.7850963 82.7245062,47.8507598 C83.1957044,48.9164232 80.5987999,49.6209649 80.5987999,49.6209649 C80.5987999,49.6209649 78.0018954,49.5041313 78.9478347,51.0371289 L78.9478347,51.0371289 C78.9478347,51.0371289 77.5306972,54.3509529 76.3509302,54.5775391 C75.1711632,54.8041254 73.633569,57.5337816 73.633569,57.5337816 C73.633569,57.5337816 69.0845575,58.3622376 69.2900425,59.7819421 C69.4955274,61.2016466 62.2964688,71.3590834 62.2964688,71.3590834 C62.2964688,71.3590834 59.933392,76.2271475 61.5879,79.7781789 C63.2424081,83.3292103 64.4221751,85.6942043 64.7764595,86.9935348 C65.1307439,88.2928654 69.4246705,94.0141683 69.3892421,95.0798317 C69.3892421,95.4126303 70.4520952,97.2040778 71.9011184,99.4770212 L71.4759771,99.916032 L70.5442092,100.875483 C70.5442092,100.875483 67.5894775,108.211213 71.1323213,108.565254 C74.1260243,108.862649 76.2765305,109.078614 77.3677263,108.781219 C77.5448261,108.739973 77.7129105,108.666787 77.8637245,108.565254 L77.9062386,108.53339 C79.1958337,110.434591 80.1098874,111.762245 80.1098874,111.762245 C80.1098874,111.762245 80.2374298,111.574603 80.4641718,111.252425 L80.8184562,111.758704 C80.8184562,111.758704 81.1018837,111.355097 81.5837105,110.696581 C81.4278253,113.914814 81.4065683,117.087021 81.4065683,117.087021 C81.4065683,117.087021 82.9441625,116.849814 82.2355937,123.948336 C81.527025,131.046859 86.4870063,136.84251 86.4870063,136.84251 L86.4870063,147.375231 L86.4870063,147.375231 C86.4870063,147.375231 86.4870063,147.640761 86.5366061,148.083313 C86.6676913,149.595068 87.0999183,153.160261 88.375342,155.518174 C90.0298501,158.59125 88.375342,166.638603 88.375342,166.638603 C88.375342,166.638603 88.2655139,173.202523 88.6623124,181.387951 C88.6623124,181.610997 88.6871123,181.841124 88.6977408,182.06771 C81.5341107,188.051003 73.8496825,195.981522 73.8496825,195.981522 C74.2259386,196.086699 74.5842289,196.247819 74.9125356,196.459478 L74.4838515,197.008241 L72.5317446,199.41218 L72.5317446,199.41218 L71.0224931,201.274435 L71.0224931,201.274435 L73.4139127,208.634948 L76.0249885,207.61531 C76.0249885,207.61531 77.4421261,210.068814 77.1445272,211.732807 C77.0993207,212.033631 76.9773027,212.317738 76.7902428,212.557723 C76.7000634,212.678511 76.637206,212.817427 76.6060149,212.96487 C75.9222461,215.630799 78.7742353,227.126511 83.2984469,227.625708 C83.2984469,227.625708 84.8324982,228.131987 85.3249535,226.751227 C85.5623241,226.08563 85.5587812,224.981022 85.0273546,223.186034 C85.0273546,223.186034 82.6359351,220.30414 84.1841578,217.1992 C85.0911258,215.38297 86.5897488,212.950708 87.673859,211.233609 L88.1202573,210.525527 C89.0945393,211.75405 89.6932799,212.543561 89.6932799,212.543561 L93.1723526,208.804888 C93.2467523,208.964206 93.321152,209.119984 93.3990946,209.268682 C93.6594328,209.789484 93.9603196,210.28904 94.2989769,210.762735 L96.6585109,220.112958 L97.6115358,219.900533 C97.5902788,220.12712 97.5761074,220.367868 97.561936,220.608615 C97.4839935,222.28677 97.561936,224.464122 98.3378188,226.018362 C98.9188452,227.20794 99.9002129,228.036396 101.501578,227.998769 C106.992986,227.862916 108.587266,224.892512 108.587266,224.892512 L108.587266,217.45765 L110.475602,217.036342 C110.475602,217.036342 110.337431,200.700889 109.852061,191.591414 C109.852061,191.38961 109.830804,191.194888 109.820176,191.003705 C109.820176,190.975382 109.820176,190.947059 109.820176,190.922276 L121.94733,177.890026 L122.879098,177.518283 C130.673354,174.441667 130.793811,166.514688 130.793811,166.514688 C130.793811,166.514688 130.793811,162.138741 131.736207,158.470876 C132.678604,154.803011 131.856664,135.752064 130.085242,131.022076 C128.31382,126.292088 127.722165,120.96023 127.722165,120.96023 C127.722165,120.96023 129.493587,118.481943 127.722165,116.417884 C127.221799,115.800074 126.804895,115.119201 126.48217,114.392769 L128.788561,114.013945 L130.117128,113.79444 L130.825696,113.674066 C130.471412,116.803789 130.411184,119.207727 131.250838,119.781274 C133.851285,121.551479 142.587938,115.638994 142.587938,115.638994 C139.399378,115.638994 137.627957,91.8580584 138.276297,91.2668099 C138.924637,90.6755614 139.891834,78.7585407 139.045094,76.6342946 C138.198354,74.5100485 142.01754,65.0252896 142.01754,65.0252896 L142.605652,64.1543487 L142.605652,64.1543487 C142.605652,64.1543487 156.5432,70.233233 158.077251,71.398028 C159.611302,72.5628229 164.45437,68.5656998 165.279852,70.1128591 C166.105335,71.6600183 171.302687,73.9648253 171.302687,73.9648253 C171.302687,73.9648253 178.980029,73.1894755 179.805512,75.083595 C180.630995,76.9777144 185.594519,81.4138484 185.594519,81.4138484 C185.597128,80.3737616 185.659823,79.3346927 185.78229,78.3018278 C185.885032,78.5461161 185.984232,78.7939448 186.090517,79.045314 C188.442965,84.6072984 192.357808,91.6491742 195.98568,87.8609353 C200.095379,83.5557965 196.967047,75.5969544 194.958255,71.5856697 Z M89.9164791,96.7225821 L89.9164791,96.7898498 L89.8881363,96.7615266 L89.9164791,96.7225821 Z M87.1672323,69.4331003 L85.6650665,85.2622743 L82.7138776,88.3176483 L82.3595933,88.6929317 L79.3092048,85.3755674 C79.3092048,85.3755674 77.7716105,84.6674853 79.3092048,83.3646144 C80.846799,82.0617434 76.7123002,79.1161222 76.7123002,79.1161222 C76.7123002,79.1161222 76.5918436,76.9918761 78.1294378,76.3970871 C79.667032,75.8022982 81.6722816,71.9007662 81.6722816,71.9007662 L87.2239178,69.068438 L87.2239178,69.068438 L87.2239178,69.068438 L87.1672323,69.4331003 Z M106.922129,150.451847 C107.029715,150.352161 107.14862,150.26542 107.276414,150.193397 C107.938926,149.818114 108.364067,150.228801 108.583723,150.951045 C108.873134,152.161482 108.785365,153.431403 108.332181,154.590587 C107.506699,156.484706 109.515491,164.057643 109.515491,164.057643 C109.515491,164.057643 106.915044,165.2366 106.443845,167.488301 C106.373836,167.765008 106.253765,168.026583 106.089561,168.26011 C106.057675,168.061847 106.029333,167.870665 106.00099,167.686564 C105.770705,166.2704 105.646706,165.356974 105.646706,165.356974 C105.223176,163.534923 105.142682,161.650015 105.409335,159.79853 C105.784876,157.522046 106.543045,152.898271 106.826473,151.145768 C106.897329,150.720918 106.936301,150.466009 106.939844,150.437685 L106.922129,150.451847 Z" id="Shape" fill="url(#linearGradient-1)" fill-rule="nonzero"></path>
            <path d="M123.372611,35.5538462 L124.06051,35 L126,39.9423077 L125.254777,41 L123,41 C123,41 123.079618,38.3076923 123.133758,38.2115385 C123.187898,38.1153846 123.372611,35.5538462 123.372611,35.5538462 Z" id="Path" fill="#464353" fill-rule="nonzero"></path>
            <path d="M109,215 L109,224.857746 C109,224.857746 107.412685,227.858085 101.945266,227.994302 C100.584641,228.075876 99.321683,227.275329 98.7953279,225.99766 C98.0334167,224.42759 97.9452325,222.226624 98.0228346,220.531092 C98.0617856,219.68294 98.1501244,218.837877 98.2873871,218.000339 L109,215 Z" id="Path" fill="#3F3D56" fill-rule="nonzero"></path>
            <path d="M109,216 L109,218.757615 L98,221 C98.0390321,220.233288 98.1275546,219.469367 98.2651028,218.712249 L109,216 Z" id="Path" fill="#000000" fill-rule="nonzero" opacity="0.1"></path>
            <path d="M111,216.930402 L97.1661247,220 L94.8037245,210.674369 C94.465415,210.201405 94.1641948,209.703076 93.902749,209.183826 C93.7502217,208.886425 93.6012415,208.571322 93.4593556,208.242057 C90.8841265,202.361316 89.7383979,191.75403 89.2488915,182.729339 C89.2240615,182.272617 89.1992315,181.819435 89.1779486,181.373335 C88.780668,173.208982 88.8906296,166.659089 88.8906296,166.659089 C88.8906296,166.659089 90.5471475,158.632815 88.8906296,155.566757 C87.6136565,153.201714 87.1809045,149.64707 87.0496601,148.131743 C87.0141886,147.682102 87,147.423647 87,147.423647 L87.2553946,146.754495 L88.298256,144 L99.769731,144 L106.438368,149.632908 L107.452852,150.489705 L107.339344,151.197801 C107.052025,152.9468 106.292935,157.57067 105.920485,159.829498 C105.653542,161.676298 105.734141,163.556599 106.158144,165.373894 C106.158144,165.373894 106.296482,166.273176 106.512858,167.699991 C106.566066,168.054039 106.626367,168.42933 106.693763,168.836486 C107.541531,174.069319 109.130653,183.625082 109.808158,185.908693 C109.996157,186.535358 110.162873,188.107333 110.287023,190.235163 C110.315401,190.66002 110.340231,191.102581 110.365061,191.566384 C110.861661,200.637101 111,216.930402 111,216.930402 Z" id="Path" fill="#514E7F" fill-rule="nonzero"></path>
            <path d="M109,225 L109,225.09286 C109,225.09286 107.444521,227.868704 102.086761,227.994728 C100.753425,228.070199 99.5157981,227.329551 99,226.147482 C101.402351,226.71459 105.301417,227.079396 109,225 Z" id="Path" fill="#000000" fill-rule="nonzero" opacity="0.1"></path>
            <path d="M195.983167,88.9173452 C192.360021,92.743849 188.483114,85.6287755 186.139348,80.0091584 C184.824724,76.8461066 184,74.1528504 184,74.1528504 L193.642925,70 C193.642925,70 194.235034,70.9575225 194.978696,72.4744963 C196.977065,76.5269324 200.089164,84.5672524 195.983167,88.9173452 Z" id="Path" fill="#A1616A" fill-rule="nonzero"></path>
            <path d="M124.330553,32.9060799 C124.174756,36.3854666 124.4384,39.8708246 125.115918,43.2885517 C125.115918,43.2885517 105.33608,45.3973814 107.112925,42.3536371 C108.154156,40.5681613 108.829357,35.8549268 109.206048,32.2523427 C109.479682,29.7006587 109.600508,27.7078146 109.600508,27.7078146 C109.600508,27.7078146 128.552336,20.2109249 125.709384,26.5374141 C124.860052,28.4248167 124.465593,30.6601762 124.330553,32.9060799 Z" id="Path" fill="#A1616A" fill-rule="nonzero"></path>
            <polygon id="Path" fill="#464353" fill-rule="nonzero" points="126.614623 84.4186869 124 116 136 113.99899 133.902709 87.9540404 134.601806 81"></polygon>
            <polygon id="Path" fill="#000000" fill-rule="nonzero" opacity="0.1" points="136 113.99899 130.78975 114.868687 124 116 124.478742 110.237374 126.617356 84.4186869 129.339546 83.2520202 131.268492 82.4282828 134.602213 81 133.90332 87.9540404"></polygon>
            <path d="M84.1657143,217.605784 C82.6157635,220.679778 85.0098522,223.532444 85.0098522,223.532444 C85.5418719,225.313603 85.5454187,226.402675 85.3077833,227.045579 C84.8147783,228.412189 83.2790148,227.909811 83.2790148,227.909811 C78.4482759,227.38284 75.5221675,214.47558 76.7635468,212.99655 C78.0049261,211.51752 76.0080788,208.120318 76.0080788,208.120318 L73.3940887,209.128588 L71,201.842344 L72.510936,199.997948 L74.4652217,197.616042 L75.7881773,196 L89,209.655558 C89,209.655558 88.4360591,210.495197 87.6593103,211.700203 C86.5739901,213.390021 85.0736946,215.814085 84.1657143,217.605784 Z" id="Path" fill="#3F3D56" fill-rule="nonzero"></path>
            <path d="M110,191.52434 L93.6259234,209 C90.7558764,203.421542 89.5218267,192.229541 89,182.781247 C92.0498657,180.255153 94.9939557,178.079905 97.2222968,177.030874 C97.2222968,177.030874 104.760578,171.60328 106.350739,169 C107.193418,174.18551 108.773002,183.654855 109.446441,185.917814 C109.66857,186.661609 109.851914,188.749145 110,191.52434 Z" id="Path" fill="#000000" fill-rule="nonzero" opacity="0.1"></path>
            <polygon id="Path" fill="#000000" fill-rule="nonzero" opacity="0.1" points="106 150 87 146.934004 88.0329142 144 99.3949704 144"></polygon>
            <path d="M110,190.778175 L93.2683787,209 C90.6953676,203.054911 89.5568983,192.331558 89.0704935,183.208119 C89.0458207,182.746399 89.021148,182.288258 89,181.837276 C92.0770393,179.231602 95.0553877,176.991008 97.2900302,175.910083 C97.2900302,175.910083 104.321752,170.745264 106.23565,168 C106.28852,168.357922 106.348439,168.73732 106.415408,169.148931 C107.257805,174.439022 108.836858,184.099345 109.51007,186.407944 C109.696878,187.037887 109.851964,188.627062 110,190.778175 Z" id="Path" fill="#000000" fill-rule="nonzero" opacity="0.1"></path>
            <path d="M89,209.916312 C89,209.916312 88.4568082,210.771985 87.7086384,212 C84.9926794,208.40188 78.5529527,200.117252 75,197.646901 L76.2742801,196 L89,209.916312 Z" id="Path" fill="#000000" fill-rule="nonzero" opacity="0.1"></path>
            <path d="M131.60196,158.962652 C130.663679,162.631373 130.663679,167.006162 130.663679,167.006162 C130.663679,167.006162 130.543748,174.929038 122.783533,178.005229 L121.855835,178.360037 L89.7567638,213 C89.7567638,213 77.8801075,197.388422 74,196.441083 C74,196.441083 89.6368332,180.236975 97.0443112,176.688889 C97.0443112,176.688889 105.982668,170.185247 106.451808,167.939309 C106.920948,165.693371 109.510038,164.50831 109.510038,164.50831 C109.510038,164.50831 107.510019,156.940243 108.331897,155.045565 C108.783136,153.887585 108.870545,152.618278 108.58234,151.408777 C108.363643,150.69916 107.940359,150.276937 107.28074,150.649486 C107.153505,150.721665 107.035119,150.808595 106.928003,150.908497 L86.5891852,147.832306 L86.5891852,137.319328 C86.5891852,137.319328 81.6508665,131.525303 82.3563406,124.429132 C83.0618147,117.33296 81.5309359,117.570682 81.5309359,117.570682 C81.5309359,117.570682 81.6050107,105.585247 82.6103113,104.584687 C83.6156119,103.584127 93.2735522,99 93.2735522,99 L123.5525,104.410831 L124.801189,110.236788 C124.801189,110.236788 125.8594,114.870588 127.623086,116.928478 C129.386771,118.986368 127.623086,121.46648 127.623086,121.46648 C127.623086,121.46648 128.212157,126.788609 129.975842,131.525303 C131.739527,136.261998 132.543767,155.297479 131.60196,158.962652 Z" id="Path" fill="#514E7F" fill-rule="nonzero"></path>
            <path d="M125.705819,26.6325924 C124.846066,28.5907914 124.446767,30.9245854 124.31007,33.2401466 C119.837441,37.1673934 113.117594,36.8696942 109,32.5618878 C109.276991,29.9144902 109.399299,27.8468946 109.399299,27.8468946 C109.399299,27.8468946 128.583651,20.0687968 125.705819,26.6325924 Z" id="Path" fill="#000000" fill-rule="nonzero" opacity="0.1"></path>
            <path d="M128,25.0072863 C127.996478,30.8292541 123.456574,35.6400488 117.64434,35.9808541 C111.832106,36.3216593 106.76103,32.0744126 106.077063,26.2927561 C105.393097,20.5110997 109.333181,15.1979293 115.064513,14.1732541 C120.795846,13.148579 126.332965,16.7673697 127.694849,22.4278248 C127.898093,23.2725755 128.000523,24.1384319 128,25.0072863 Z" id="Path" fill="#A1616A" fill-rule="nonzero"></path>
            <path d="M119.599663,43.1557531 C119.599663,43.1557531 111.774788,39.4807283 111.286611,39.0040068 C110.798434,38.5272853 94.5656813,80.7491576 94.5656813,80.7491576 L90,101.739135 C90,101.739135 114.34913,112.291045 119.617223,110.867996 C124.885317,109.444947 125.352422,110.867996 125.352422,110.867996 C125.352422,110.867996 130.739926,80.2724361 132.495957,77.5472967 C134.251988,74.8221574 130.855824,47.0691386 130.855824,47.0691386 L124.769419,39 L119.599663,43.1557531 Z" id="Path" fill="#000000" fill-rule="nonzero" opacity="0.1"></path>
            <path d="M119.599663,42.1557531 C119.599663,42.1557531 111.774788,38.4807283 111.286611,38.0040068 C110.798434,37.5272853 94.5656813,79.7491576 94.5656813,79.7491576 L90,100.739135 C90,100.739135 114.34913,111.291045 119.617223,109.867996 C124.885317,108.444947 125.352422,109.867996 125.352422,109.867996 C125.352422,109.867996 130.739926,79.2724361 132.495957,76.5472967 C134.251988,73.8221574 130.855824,46.0691386 130.855824,46.0691386 L124.769419,38 L119.599663,42.1557531 Z" id="Path" fill="#000000" fill-rule="nonzero" opacity="0.1"></path>
            <path d="M132.493547,77.5437611 C132.142274,78.1094235 131.611851,79.8668904 131.018199,82.300306 C130.603696,83.9937356 130.154066,86.0109091 129.693898,88.1810605 C127.621385,97.9752027 125.352158,110.868037 125.352158,110.868037 C125.352158,110.868037 125.208136,110.434006 124.192956,110.284586 C123.370976,110.163627 121.972908,110.231222 119.626401,110.868037 C114.3573,112.291087 90,101.735613 90,101.735613 L90.7025469,98.5337499 L94.5665546,80.7456238 C94.5665546,80.7456238 110.844565,38.5272853 111.311759,39.0040071 C111.596291,39.2921748 114.638319,40.7828197 116.956723,41.8892412 C118.435584,42.6007662 119.626401,43.1521981 119.626401,43.1521981 L124.544229,39.2174646 L124.81471,39 L130.874177,47.0655859 C130.874177,47.0655859 134.249914,74.8150626 132.493547,77.5437611 Z" id="Path" fill="#7A00FF" fill-rule="nonzero"></path>
            <path d="M112.963072,47.2400749 C113.658817,49.9513607 112.037731,54.4078826 112.037731,54.4078826 C112.037731,54.4078826 106.471769,68.2781018 104.847204,74.6878777 C103.222638,81.0976536 93.9309607,94.0159259 93.9309607,94.0159259 C93.9309607,94.0159259 92.5673,95.4015375 90.6574793,97.3301114 C90.445277,97.5451809 90.2226385,97.7673019 90,98 L93.8265989,80.3713534 C93.8265989,80.3713534 109.947016,38.5315235 110.409687,39.0039712 C110.691464,39.2895553 113.704041,40.7668358 116,41.8633377 C114.563286,43.1890119 112.500401,45.4454787 112.963072,47.2400749 Z" id="Path" fill="#000000" fill-rule="nonzero" opacity="0.1"></path>
            <path d="M113.525991,47.4589353 C114.240118,50.1870287 112.576201,54.6711769 112.576201,54.6711769 C112.576201,54.6711769 106.863181,68.6273789 105.195693,75.0768896 C103.528205,81.5264004 93.9910317,94.5247542 93.9910317,94.5247542 C93.9910317,94.5247542 92.5913417,95.9189554 90.6310616,97.8594847 C90.3989701,98.0900778 90.1561668,98.327766 89.916934,98.5690019 C86.0892104,102.354276 80.7082593,107.661464 79.0264889,109.211759 C78.7801149,109.442352 78.6122949,109.591351 78.5408821,109.641017 C78.388885,109.742755 78.219482,109.81609 78.0409929,109.857419 C76.9412364,110.155417 74.7738593,109.939014 71.7566704,109.641017 C68.1860326,109.286258 71.1639445,101.956946 71.1639445,101.956946 L72.1030223,100.99555 L72.9599753,100.115749 L82.6863926,90.1718666 L83.4005201,89.423326 L86.3748614,86.37595 L87.8888118,70.5537179 L87.9245182,70.1741263 C87.9245182,70.1741263 87.4817591,69.1701595 86.7997673,67.6376025 C84.9823127,63.4904749 81.4116749,55.4871216 80.1048215,52.9009317 C79.9548547,52.5993869 79.8370236,52.375889 79.7477577,52.2375332 C79.7477577,52.2197952 79.7299045,52.2020573 79.7191926,52.187867 C78.7658323,50.6517624 81.3831098,50.7688327 81.3831098,50.7688327 C81.3831098,50.7688327 84.0039579,50.0593156 83.5254925,48.9950399 C83.047027,47.9307642 86.6212354,47.2212471 86.5034043,45.6851425 C86.3855733,44.1490379 88.645787,43.9113496 88.645787,43.9113496 C88.645787,43.9113496 91.859361,44.9756253 91.5022972,43.9113496 C91.1452334,42.8470739 96.5011901,42.2546271 96.5011901,42.2546271 C96.5011901,42.2546271 99.1184675,43.5565911 100.546723,42.2546271 C101.974978,40.9526632 107.834394,40.9562108 107.834394,40.9562108 C107.834394,40.9562108 106.638231,36.4614198 107.834394,35.1594558 C109.030558,33.8574919 118,40.9562108 118,40.9562108 C118,40.9562108 112.811863,44.7343895 113.525991,47.4589353 Z" id="Path" fill="#464353" fill-rule="nonzero"></path>
            <path d="M84,107.817864 C84,107.817864 93.6155841,121.573514 100.33294,117.108218 C107.050296,112.642923 91.2976967,101 91.2976967,101 L84,107.817864 Z" id="Path" fill="#000000" fill-rule="nonzero" opacity="0.1"></path>
            <path d="M84,106.817864 C84,106.817864 93.6155841,120.573514 100.33294,116.108218 C107.050296,111.642923 91.2976967,100 91.2976967,100 L84,106.817864 Z" id="Path" fill="#A1616A" fill-rule="nonzero"></path>
            <path d="M130.877889,115 C131.602748,108.445636 133.705184,98.59807 131.990943,95.611046 C131.142411,94.1299948 130.513741,91.306741 130.053404,88.2164707 C129.806059,86.5538483 129.610244,84.8129011 129.452217,83.1609594 C129.033104,78.7783295 128.899126,75.0258584 128.899126,75.0258584 C128.899126,75.0258584 124.776702,55.9715651 125.577139,52.0553239 C126.078701,49.6058931 125.501562,43.4680751 125,39.2171734 L125.264522,39 L131.190506,47.071017 C131.190506,47.071017 134.509057,74.840727 132.79138,77.5714152 C132.447845,78.13749 131.929107,79.8962383 131.348532,82.3314283 L134.625859,80.9073406 L133.938788,87.9102918 L136,114.138427 L130.877889,115 Z" id="Path" fill="#000000" fill-rule="nonzero" opacity="0.1"></path>
            <path d="M125,35 C125,35 131.051398,40.1128225 133.354018,40.2295859 C133.354018,40.2295859 132.732732,43.0602143 130.159835,44.2420016 C130.159835,44.2420016 136.477999,45.0841136 138.81923,44.7196702 C141.160461,44.3552268 145.253228,44.9496587 146.071079,46.1349844 C146.888931,47.32031 148.665037,48.8417728 150.069074,49.0752996 C151.47311,49.3088264 153,50.7276789 153,50.7276789 L142.697881,66.0590698 C142.697881,66.0590698 138.952614,75.4956772 139.770465,77.6186485 C140.588316,79.7416197 139.651122,91.6550269 139.008775,92.2423823 C138.366428,92.8297377 140.121474,116.539789 143.280557,116.539789 C143.280557,116.539789 134.624671,122.43811 132.048264,120.668968 C129.471857,118.899825 135.326689,99.7930835 132.750282,95.4268392 C130.173875,91.060595 129.5912,74.9684726 129.5912,74.9684726 C129.5912,74.9684726 125.37909,56.0351071 126.200451,52.1429931 C127.021813,48.2508791 125,35 125,35 Z" id="Path" fill="#464353" fill-rule="nonzero"></path>
            <path d="M195,72.4758151 C191.853612,71.4797564 187.033387,71.4510928 186.143499,80 C184.826324,76.8398424 184,74.1490505 184,74.1490505 L193.661637,70 C193.661637,70 194.254896,70.9602293 195,72.4758151 Z" id="Path" fill="#000000" fill-rule="nonzero" opacity="0.1"></path>
            <path d="M147.313894,50 L153.09578,50.6994536 C153.09578,50.6994536 154.863942,53.0321311 156.508331,53.0321311 C158.152721,53.0321311 159.454088,55.1304918 159.454088,55.1304918 C159.454088,55.1304918 161.812815,56.4104918 163.344042,56.060765 C164.87527,55.7110383 171.24065,55.1339891 172.184848,56.1237158 C173.129046,57.1134426 179.257492,58.0437158 179.257492,58.0437158 C179.257492,58.0437158 181.616219,61.6563934 183.738012,61.6563934 C185.859806,61.6563934 197.646368,70.1687432 198,73.197377 C198,73.197377 186.330137,65.8531148 186.213438,82 C186.213438,82 181.262587,77.6284153 180.435088,75.7643716 C179.607588,73.9003279 171.947914,74.659235 171.947914,74.659235 C171.947914,74.659235 166.763666,72.3825137 165.936166,70.8681967 C165.108667,69.3538798 160.278051,73.2813115 158.746823,72.1307104 C157.215596,70.9801093 143.303704,64.9927869 143.303704,64.9927869 L139,56.9945355 L147.313894,50 Z" id="Path" fill="#464353" fill-rule="nonzero"></path>
            <circle id="Oval" fill="#3F3D56" fill-rule="nonzero" cx="120" cy="63" r="1"></circle>
            <circle id="Oval" fill="#3F3D56" fill-rule="nonzero" cx="119" cy="84" r="1"></circle>
            <circle id="Oval" fill="#3F3D56" fill-rule="nonzero" cx="120" cy="73" r="1"></circle>
            <circle id="Oval" fill="#3F3D56" fill-rule="nonzero" cx="117" cy="95" r="1"></circle>
            <path d="M86,227.046247 C85.5181976,228.4119 84.017331,227.909874 84.017331,227.909874 C79.2963605,227.383272 76.4367418,214.485049 77.6499133,213.007054 C78.8630849,211.52906 76.8942808,208.116683 76.8942808,208.116683 L74.339688,209.124247 L72,201.843105 L73.4766031,200 C74.9462738,202.580347 77.05026,206.291131 77.5459272,207.239014 C78.4870691,209.20463 78.9336029,211.375491 78.8457539,213.55823 C78.7660312,215.84017 81.3795494,226.751351 86,227.046247 Z" id="Path" fill="#000000" fill-rule="nonzero" opacity="0.1"></path>
            <path d="M127.989204,22.4699825 C127.744499,22.3877068 127.499795,22.2911223 127.269484,22.1945377 C126.445405,21.8618576 125.578142,21.4790966 125.077937,20.7636555 C124.620915,20.0982953 124.473372,19.1610675 123.760849,18.7818837 C122.940369,18.3454646 121.961549,18.9357035 121.072695,19.1396043 C120.014707,19.3864314 118.913535,19.0931006 117.884336,18.717494 C116.351332,18.1558728 114.210165,17.1220604 112.637577,18.1916448 C111.414053,19.0215565 111.889068,20.7815416 111.57599,22.0371407 C111.090179,23.9867176 109.00659,25.2566256 108.614342,27.2276658 C108.438011,28.0969267 108.553166,29.1593567 107.844242,29.6995147 C107.63734,29.8461423 107.402063,29.9484641 107.153311,30 C105.257363,26.1836599 105.726106,21.6253494 108.359614,18.2692637 C110.993122,14.913178 115.32664,13.3515891 119.511852,14.2505405 C123.697063,15.149492 126.995374,18.3503395 128,22.4878686 L127.989204,22.4699825 Z" id="Path" fill="#000000" fill-rule="nonzero" opacity="0.1"></path>
            <path d="M118.418667,17.6838408 C119.436299,18.0550156 120.543828,18.3448855 121.60461,18.0974356 C122.507175,17.8888707 123.467273,17.3055959 124.287132,17.7439357 C125.006306,18.1221806 125.150141,19.0448151 125.603221,19.7023248 C126.103048,20.4093245 126.969653,20.8052443 127.796704,21.1163242 C128.413354,21.3990205 129.072936,21.5805292 129.749263,21.6536439 C130.435315,21.7196352 131.113432,21.4673587 131.583158,20.9713892 C132.223224,20.2113646 132.029047,19.0730951 131.647884,18.1646005 C131.266721,17.256106 130.72734,16.3511464 130.766895,15.3684168 C130.813641,14.2018674 131.673055,13.1873229 131.744973,12.0243084 C131.838465,10.5502141 130.626656,9.26347469 129.253033,8.66605996 C128.023244,8.13227521 126.617258,7.98380528 125.491749,7.25206062 C124.208023,6.42487101 123.503231,4.98966167 122.553921,3.80190223 C121.173106,2.07328803 119.011986,0.783013632 116.800524,1.03046352 C115.437688,1.18246845 114.200708,1.88239812 112.845064,2.15459299 C110.784628,2.5752578 108.605529,1.96370308 106.555882,2.43385786 C106.060667,2.51045194 105.60804,2.75418246 105.275751,3.12318254 C104.772328,3.78776223 105.031231,4.7174668 105.254175,5.51637643 C105.653317,6.95512076 105.822323,8.584755 105.027635,9.85028441 C104.128667,11.2819587 102.219259,11.8864435 101.388612,13.3570028 C100.90137,14.232099 100.870612,15.2838313 101.305907,16.1850015 C101.701453,16.9980511 102.467374,17.6590958 102.586038,18.5534504 C102.668743,19.1968201 102.399052,19.8225148 102.258813,20.4517445 C102.118574,21.0809742 102.158129,21.8657438 102.686722,22.2192437 C103.215315,22.5727435 103.956065,22.4843685 104.362399,22.9262433 C104.611391,23.2817493 104.681578,23.7295865 104.55298,24.1422828 C104.409145,24.8492824 104.103496,25.4891171 103.941682,26.1819768 C103.731765,26.8694179 103.832623,27.6124003 104.218564,28.2216709 C104.916163,29.1478404 106.325746,29.0912805 107.45485,28.8438306 C107.780764,28.7928713 108.091325,28.6721979 108.364606,28.4903307 C109.08378,27.956546 108.957925,26.9066515 109.134123,26.0476469 C109.526073,24.1033978 111.608083,22.8414034 112.093526,20.9183643 C112.406367,19.6775798 111.931712,17.9348257 113.154309,17.114706 C114.743685,16.1072315 116.886825,17.128846 118.418667,17.6838408 Z" id="Path" fill="#464353" fill-rule="nonzero"></path>
            <path d="M117,146 C117,146 127.660389,153.228045 128,156 L117,146 Z" id="Path" fill="#000000" fill-rule="nonzero" opacity="0.1"></path>
            <path d="M116,151 C116,151 128.675926,156.942563 127.971708,159 L116,151 Z" id="Path" fill="#000000" fill-rule="nonzero" opacity="0.1"></path>
            <path d="M115,157 C115,157 122.508999,160.765882 123,163 L115,157 Z" id="Path" fill="#000000" fill-rule="nonzero" opacity="0.1"></path>
            <path d="M118,165 C118,165 122.918419,168.820772 123.903579,167.838568 C124.888739,166.856365 118,165 118,165 Z" id="Path" fill="#000000" fill-rule="nonzero" opacity="0.1"></path>
            <path d="M112,168 C112,168 115.078256,173.647839 113.596901,173.986845 C112.115546,174.325851 112,168 112,168 Z" id="Path" fill="#000000" fill-rule="nonzero" opacity="0.1"></path>
            <path d="M95,63 C95,63 88.3780597,66.9103439 90.3755097,67.889764 C92.3729597,68.8691841 95,63 95,63 Z" id="Path" fill="#000000" fill-rule="nonzero" opacity="0.1"></path>
            <path d="M95,49 C95,49 88.9347256,60.790376 91.7415998,59.957904 C94.548474,59.125432 95,49 95,49 Z" id="Path" fill="#000000" fill-rule="nonzero" opacity="0.1"></path>
            <path d="M163,61 C163,61 159.429752,65.529 160.078888,68 L163,61 Z" id="Path" fill="#000000" fill-rule="nonzero" opacity="0.1"></path>
            <path d="M173,63 C173,63 167.240255,68.3864054 168.084506,69 L173,63 Z" id="Path" fill="#000000" fill-rule="nonzero" opacity="0.1"></path>
            <path d="M176.340272,69 C176.340272,69 175.238525,72.856 177,73 L176.340272,69 Z" id="Path" fill="#000000" fill-rule="nonzero" opacity="0.1"></path>
            <path d="M113.046568,141.71578 C111.496009,143.712364 111.496009,147.251762 110.795522,148.703822 C110.412442,149.502456 109.558723,150.881913 108.865532,152 C108.639333,151.27397 108.201528,150.841982 107.519282,151.223148 C107.070532,147.894299 106.278835,142.147769 106.023449,140.98975 C105.658612,139.356182 109.671823,135 109.671823,135 C109.671823,135 113.593824,135.816784 114.597127,137.813367 C115.60043,139.809951 114.597127,139.722827 113.046568,141.71578 Z" id="Path" fill="#000000" fill-rule="nonzero" opacity="0.05"></path>
            <path d="M94,100.282428 C89.6797531,100.8603 81.6404937,112 81.6404937,112 C81.6404937,112 80.5856335,110.517027 79.1203497,108.445739 C77.2770444,105.817466 74.8001029,102.235356 73,99.5200545 L83.5486028,89 L85.4675124,90.9981837 C85.4675124,90.9981837 89.1901252,94.5942183 89.1901252,95.2904495 C89.1901252,95.5619797 89.9101663,96.3870138 90.8246185,97.2886333 C92.2250986,98.6915393 94,100.282428 94,100.282428 Z" id="Path" fill="#000000" fill-rule="nonzero" opacity="0.1"></path>
            <path d="M79.3540718,52.6466113 C79.2053617,52.3526971 79.088518,52.1348548 79,52 L83.574608,52.2973721 L86,67 C84.190693,62.9681881 80.6499747,55.1673582 79.3540718,52.6466113 Z" id="Path" fill="#000000" fill-rule="nonzero" opacity="0.1"></path>
            <path d="M90,98.537464 C86.132291,102.381124 80.6951293,107.770173 78.9957907,109.34438 C78.7468431,109.57853 78.57727,109.729827 78.5051112,109.780259 C78.3515263,109.883567 78.1803537,109.958033 78,110 C76.3006615,107.507205 73.8761275,103.915706 72,100.994236 L72.865905,100.100865 L82.7011425,90 L83.9170174,91.3076369 C83.9170174,91.3076369 87.6476248,95.0288184 87.6476248,95.7492795 C87.6476248,96.0951009 88.8129886,97.3487032 90,98.537464 Z" id="Path" fill="#000000" fill-rule="nonzero" opacity="0.1"></path>
            <path d="M85.1398488,52.3567251 L79.8551214,52 C79.8551214,52 78.4458608,55.3282456 77.2726513,55.5672515 C76.0994418,55.8062573 74.570394,58.5387719 74.570394,58.5387719 C74.570394,58.5387719 70.0466674,59.3735088 70.2439639,60.8004094 C70.4412604,62.2273099 63.2892626,72.4332164 63.2892626,72.4332164 C63.2892626,72.4332164 60.9393205,77.3274854 62.5846323,80.8947368 C64.2299441,84.4619883 65.4031536,86.841345 65.7554688,88.1469591 C66.1077839,89.4525731 70.2791954,95.1637427 70.2439639,96.2339181 C70.2087324,97.3040936 80.9050206,113 80.9050206,113 C80.9050206,113 88.7722181,101.584795 93,100.989064 C93,100.989064 88.3036389,96.5906433 88.3036389,95.877193 C88.3036389,95.1637427 84.6888854,91.4787719 84.6888854,91.4787719 L80.1087883,86.4846199 C80.1087883,86.4846199 78.5797405,85.7711696 80.1087883,84.4619883 C81.6378361,83.152807 77.5263182,80.1812865 77.5263182,80.1812865 C77.5263182,80.1812865 77.4065311,78.0409357 78.9355789,77.4452047 C80.4646266,76.8494737 82.4587304,72.9290643 82.4587304,72.9290643 L87.979509,70.0752632 L85.1398488,52.3567251 Z" id="Path" fill="#464353" fill-rule="nonzero"></path>
            <path d="M65,75.9080128 C65,75.9080128 70.8905902,74.3299495 70.9985843,75.3345635 C71.1065785,76.3391776 65,75.9080128 65,75.9080128 Z" id="Path" fill="#000000" fill-rule="nonzero" opacity="0.1"></path>
            <path d="M70,82 C70,82 75.2219378,82.6663053 74.9926653,83.752383 C74.7633928,84.8384607 70,82 70,82 Z" id="Path" fill="#000000" fill-rule="nonzero" opacity="0.1"></path>
            <path d="M74,62 C74,62 79.280144,69.306468 80,67.7938145 L74,62 Z" id="Path" fill="#000000" fill-rule="nonzero" opacity="0.1"></path>
            <g id="Group" opacity="0.1" transform="translate(101.000000, 3.000000)" fill="#000000" fill-rule="nonzero">
                <path d="M4.62505747,3.83945205 C4.6570095,2.97648632 4.54870649,2.11405364 4.30436782,1.28575342 C4.20141202,0.935438024 4.1228335,0.578420774 4.0691954,0.217260274 C4.02358177,0.82073498 4.10365836,1.42710776 4.30436782,1.99808219 C4.47362344,2.5993764 4.58107612,3.21635958 4.62505747,3.83945205 L4.62505747,3.83945205 Z" id="Path"></path>
                <path d="M29.613908,11.6750685 C29.7528736,10.6065753 30.4868966,9.63424658 30.5545977,8.54082192 C30.5654146,8.35891729 30.5582535,8.1763897 30.5332184,7.99589041 C30.3942529,9.1 29.6281609,10.0794521 29.5854023,11.2013699 C29.5807878,11.3598026 29.5903276,11.5183309 29.613908,11.6750685 L29.613908,11.6750685 Z" id="Path"></path>
                <path d="M30.3942529,16.8394521 C29.9287924,17.3391599 29.2568332,17.593338 28.5770115,17.5268493 C27.9068259,17.4531835 27.2532337,17.2703067 26.6421839,16.9854795 C25.8226437,16.6542466 24.963908,16.2731507 24.4686207,15.5608219 C24.016092,14.8983562 23.87,13.9687671 23.1644828,13.5876712 C22.352069,13.1531507 21.3828736,13.7408219 20.5027586,13.9438356 C19.4551724,14.1931507 18.3648276,13.9010959 17.3493103,13.5271233 C15.8313793,12.9679452 13.7077011,11.9386301 12.1505747,13 C10.9390805,13.8263014 11.4094253,15.5821918 11.0994253,16.8323288 C10.6183908,18.769863 8.55528736,20.0378082 8.16689655,22.000274 C7.99229885,22.8657534 8.10632184,23.9235616 7.40436782,24.4613699 C7.13256706,24.6451945 6.82353478,24.766807 6.49931034,24.8175342 C5.3662069,25.0668493 3.96942529,25.1238356 3.29241379,24.1906849 C3.09680665,23.9239804 2.97400811,23.6109825 2.93609195,23.2824658 C2.84408883,23.8482937 2.97152901,24.4278903 3.29241379,24.9030137 C3.98367816,25.8361644 5.38045977,25.7791781 6.49931034,25.529863 C6.82353478,25.4791357 7.13256706,25.3575232 7.40436782,25.1736986 C8.11701149,24.6358904 7.99229885,23.5780822 8.16689655,22.7126027 C8.55528736,20.7536986 10.6183908,19.4821918 11.0994253,17.5446575 C11.4094253,16.2945205 10.9390805,14.5386301 12.1505747,13.7123288 C13.7077011,12.6438356 15.8313793,13.680274 17.3493103,14.2394521 C18.3577011,14.6134247 19.4551724,14.9054795 20.5027586,14.6561644 C21.4006897,14.4460274 22.352069,13.8583562 23.1644828,14.3 C23.8771264,14.6810959 24.016092,15.6106849 24.4686207,16.2731507 C24.963908,16.9854795 25.8226437,17.3843836 26.6421839,17.6978082 C27.2532337,17.9826354 27.9068259,18.1655123 28.5770115,18.2391781 C29.2568332,18.3056668 29.9287924,18.0514887 30.3942529,17.5517808 C30.7438775,17.0838142 30.8832638,16.4916841 30.7790805,15.9169863 C30.7415284,16.2548888 30.6079928,16.5749855 30.3942529,16.8394521 L30.3942529,16.8394521 Z" id="Path"></path>
                <path d="M1.66045977,14.4068493 C1.54287356,13.5057534 0.783908046,12.839726 0.391954023,12.0205479 C0.244659628,11.7120872 0.150687444,11.3809214 0.114022989,11.0410959 C0.0458348433,11.6199229 0.142157345,12.2062431 0.391954023,12.7328767 C0.773218391,13.5271233 1.49298851,14.1824658 1.64264368,15.0408219 C1.67887297,14.8314357 1.68487274,14.6179382 1.66045977,14.4068493 L1.66045977,14.4068493 Z" id="Path"></path>
                <path d="M3.6416092,19.970137 C3.74471087,19.5823038 3.67031394,19.1687353 3.43850575,18.8410959 C3.03586207,18.3816438 2.26977011,18.4849315 1.77804598,18.1287671 C1.51461457,17.9205572 1.34632728,17.6149489 1.31126437,17.2810959 C1.23287356,17.8616438 1.31126437,18.5027397 1.77804598,18.8410959 C2.24482759,19.1794521 3.03586207,19.1082192 3.43850575,19.5534247 C3.5388255,19.6739315 3.60850658,19.8168979 3.6416092,19.970137 L3.6416092,19.970137 Z" id="Path"></path>
            </g>
            <path d="M20.7295605,207.019097 C20.7295605,207.019097 6.45701583,206.13659 8.13755966,216.370132 C8.13755966,216.370132 7.79247879,218.177504 9.40745726,219 C9.40745726,219 9.43161292,218.241045 10.8706001,218.498737 C11.3823845,218.586074 11.9024942,218.610958 12.4200132,218.572867 C13.1203834,218.52403 13.7863655,218.24409 14.317958,217.775081 L14.317958,217.775081 C14.317958,217.775081 18.3312485,216.07714 19.891014,209.370093 C19.891014,209.370093 21.0435841,207.905133 20.9987236,207.53095 L18.5831575,208.589958 C18.5831575,208.589958 19.4079008,210.35497 18.7591488,211.84464 C18.7591488,211.84464 18.6797802,208.667618 18.2173718,208.727628 C18.1242,208.745279 16.9647283,209.345383 16.9647283,209.345383 C16.9647283,209.345383 18.3830106,212.441214 17.3098091,214.69337 C17.3098091,214.69337 17.7170046,210.877413 16.519574,209.567774 L14.8252269,210.580891 C14.8252269,210.580891 16.4816151,213.779094 15.3566514,216.391312 C15.3566514,216.391312 15.6465194,212.388264 14.4697936,210.827993 L12.9307329,212.052912 C12.9307329,212.052912 14.4870476,215.205224 13.5380752,217.372659 C13.5380752,217.372659 13.4138461,212.709496 12.5994553,212.360024 C12.5994553,212.360024 11.2536399,213.570822 11.0500422,214.068556 C11.0500422,214.068556 12.1128913,216.359542 11.4537868,217.56681 C11.4537868,217.56681 11.0500422,214.460388 10.7153137,214.446268 C10.7153137,214.446268 9.37639998,216.504273 9.23836763,217.912752 C9.23836763,217.912752 9.29703138,215.815918 10.3909377,214.248587 C9.61897997,214.399742 8.90673871,214.777531 8.34115737,215.335834 C8.34115737,215.335834 8.54820589,213.881464 10.7222154,213.754383 C10.7222154,213.754383 11.829925,212.194113 12.1266945,212.098802 C12.1266945,212.098802 9.96303745,211.915241 8.65518096,212.508285 C8.65518096,212.508285 9.80775106,211.138635 12.5200867,211.75992 L14.0384425,210.492641 C14.0384425,210.492641 11.1949762,210.097278 9.98719312,210.535001 C9.98719312,210.535001 11.3675166,209.320673 14.4490887,210.206709 L16.0985753,209.197122 C16.0985753,209.197122 13.6830092,208.660558 12.226768,208.844119 C12.226768,208.844119 13.7520254,208.003973 16.5816885,208.91472 L17.7653159,208.371096 C17.7653159,208.371096 15.9881494,208.018094 15.4670773,207.958083 C14.9460052,207.898073 14.9183987,207.753342 14.9183987,207.753342 C16.0437889,207.562982 17.1987248,207.694933 18.2553307,208.134584 C18.2553307,208.134584 20.7744211,207.177948 20.7295605,207.019097 Z" id="Path" fill="#7A00FF" fill-rule="nonzero"></path>
            <ellipse id="Oval" fill="#7A00FF" fill-rule="nonzero" opacity="0.1" cx="10.5" cy="220" rx="10.5" ry="2"></ellipse>
            <g filter="url(#filter-2)" id="Netflix_2015_logo">
                <g transform="translate(320.000000, 66.000000)">
                    <path d="M49.7760605,91.6831995 C44.3305059,92.6410953 38.7891484,92.928287 33.0568926,93.6931872 L15.5727168,42.3967161 L15.5727168,95.894754 C10.1271621,96.4687832 5.15920703,97.2343916 0,98 L0,1.42108547e-14 L14.5224219,1.42108547e-14 L34.3942422,55.6043463 L34.3942422,1.42108547e-14 L49.7760605,1.42108547e-14 L49.7760605,91.6831995 Z M79.8711992,35.8886905 C85.7950605,35.8886905 94.8712207,35.6014989 100.316775,35.6014989 L100.316775,50.9136669 C93.5331641,50.9136669 85.6038086,50.9136669 79.8711992,51.2008586 L79.8711992,73.9785938 C88.8522637,73.4045645 97.8329746,72.6382479 106.908781,72.3510562 L106.908781,87.0884867 L64.5844766,90.4388203 L64.5844766,2.13162821e-14 L106.908781,2.13162821e-14 L106.908781,15.3125221 L79.8711992,15.3125221 L79.8711992,35.8886905 Z M163.754801,15.3128763 L147.895383,15.3128763 L147.895383,85.7502656 C142.736176,85.7502656 137.576969,85.7502656 132.609721,85.9411365 L132.609721,15.3128763 L116.750303,15.3128763 L116.750303,0 L163.755508,0 L163.754801,15.3128763 L163.754801,15.3128763 Z M188.59493,34.8362446 L209.518459,34.8362446 L209.518459,50.1484126 L188.59493,50.1484126 L188.59493,84.8890447 L173.594201,84.8890447 L173.594201,2.13162821e-14 L216.301717,2.13162821e-14 L216.301717,15.3125221 L188.59493,15.3125221 L188.59493,34.8362446 Z M241.141846,71.4901894 C249.836209,71.6810603 258.625314,72.3521186 267.128779,72.8298271 L267.128779,87.9511242 C253.466814,87.089195 239.804496,86.2290364 225.85583,85.9411365 L225.85583,1.42108547e-14 L241.141846,1.42108547e-14 L241.141846,71.4901894 Z M280.026443,89.0039242 C284.898949,89.29147 290.058156,89.5786617 295.026111,90.1519827 L295.026111,0 L280.026443,0 L280.026443,89.0039242 Z M362,1.42108547e-14 L342.605072,46.6075623 L362,98 C356.267037,97.2343916 350.534781,96.1815915 344.802172,95.224404 L333.815613,66.8968931 L322.63851,92.928287 C317.096092,91.9703912 311.745986,91.6831995 306.205689,90.9175911 L325.886611,46.0328248 L308.115734,1.42108547e-14 L324.547848,1.42108547e-14 L334.579561,25.7442022 L345.280479,1.42108547e-14 L362,1.42108547e-14 Z" id="Shape" fill="#D81F26" fill-rule="nonzero"></path>
                </g>
            </g>
        </g>
    </g>
</svg>