<?xml version="1.0" encoding="UTF-8"?>
<svg width="473px" height="225px" viewBox="0 0 473 225" version="1.1" xmlns="http://www.w3.org/2000/svg" xmlns:xlink="http://www.w3.org/1999/xlink">
    <title>Group 3</title>
    <defs>
        <linearGradient x1="50.0366954%" y1="100.016503%" x2="50.0366954%" y2="-0.00528319094%" id="linearGradient-1">
            <stop stop-color="#808080" stop-opacity="0.25" offset="0%"></stop>
            <stop stop-color="#808080" stop-opacity="0.12" offset="54%"></stop>
            <stop stop-color="#808080" stop-opacity="0.1" offset="100%"></stop>
        </linearGradient>
    </defs>
    <g id="Dekstop" stroke="none" stroke-width="1" fill="none" fill-rule="evenodd">
        <g id="Artboard" transform="translate(-503.000000, -320.000000)">
            <g id="Group-3" transform="translate(503.332311, 320.360747)">
                <path d="M274.99161,29.9009085 C253.022349,40.6682655 224.526437,39.9732755 199.555106,34.3701265 C174.583776,28.7669775 151.645493,18.7910445 127.315427,11.7014814 C107.036924,5.78049645 85.6714336,1.88176402 63.8444516,0.119423214 C32.8357308,-2.3645841 -11.332311,34.3701265 2.66768903,66.6392526 C7.28749429,77.2876154 40.8615753,106.639253 19.6114234,148.139253 C-1.63872847,189.639253 8.65291865,207.984614 19.6114234,212.181156 C55.3607544,225.874787 99.4132784,225.741774 135.039107,211.848625 C147.740902,206.877285 159.407173,200.279868 172.731233,196.429158 C207.715796,186.280309 246.267692,196.49899 283.313803,200.233314 C314.791939,203.390265 346.872493,201.755825 377.36599,195.441541 C395.710916,191.647361 411.13959,185.060456 427.014144,175.044083 C479.956141,141.639253 470.615407,103.526619 471.446677,96.7629368 C472.947712,84.5091657 466.620564,72.3950578 458.003864,62.0533406 C437.545139,37.4792923 403.087838,20.2142776 365.77097,15.8281924 C328.454103,11.4421072 288.975935,20.0081083 260.033512,38.7528864" id="Path" fill="#7A00FF" fill-rule="nonzero" opacity="0.1"></path>
                <g id="Group-7" transform="translate(70.667689, 35.639253)" fill-rule="nonzero">
                    <polygon id="Path" fill="#464353" points="137 184 134.469041 184 115.956229 87.6159454 113.582206 184 110.89431 184 107.886834 87.7770987 89.8476859 184 87 184 99.2610284 84.9338943 99.6605033 81.7137063 123.71175 79 124.459339 84.9338943"></polygon>
                    <rect id="Rectangle" fill="#464353" x="71" y="59" width="15" height="10"></rect>
                    <path d="M160,54.6983263 L168.957202,51 L170.920387,51 C171.516641,51 172,51.4942112 172,52.1038516 L172,77.8961484 C172,78.5057888 171.516641,79 170.920387,79 L168.957202,79 L160,75.1859246 L160,54.6983263 Z" id="Path" fill="#464353"></path>
                    <rect id="Rectangle" fill="#464353" x="140" y="56" width="19" height="19"></rect>
                    <rect id="Rectangle" fill="#514E7F" x="108" y="21" width="12" height="2"></rect>
                    <rect id="Rectangle" fill="#514E7F" x="93" y="24" width="35" height="25"></rect>
                    <rect id="Rectangle" fill="#000000" opacity="0.1" x="93" y="46" width="35" height="3"></rect>
                    <rect id="Rectangle" fill="#000000" opacity="0.1" x="140" y="56" width="1" height="19"></rect>
                    <rect id="Rectangle" fill="#000000" opacity="0.1" x="80" y="59" width="5" height="10"></rect>
                    <polygon id="Path" fill="#000000" opacity="0.1" points="124 85 99 85 99.3963311 81.7439379 123.258295 79"></polygon>
                    <rect id="Rectangle" fill="#514E7F" x="80" y="47" width="60" height="37" rx="10.7"></rect>
                    <path d="M159.783505,55 L160,55 L160,76 L159.783505,76 C158.798502,76 158,75.3275943 158,74.4981397 L158,56.5018603 C158,55.6724057 158.798502,55 159.783505,55 Z" id="Path" fill="#514E7F"></path>
                    <path d="M169,51 L170.832123,51 C171.477124,51 172,51.5421326 172,52.2108871 L172,77.7891129 C172,78.4578674 171.477124,79 170.832123,79 L169,79 L169,51 Z" id="Path" fill="#514E7F"></path>
                    <rect id="Rectangle" fill="#000000" opacity="0.1" x="71" y="59" width="2" height="10"></rect>
                    <rect id="Rectangle" fill="#514E7F" x="67" y="56" width="6" height="16" rx="3"></rect>
                    <circle id="Oval" fill="#464353" cx="93" cy="24" r="17"></circle>
                    <circle id="Oval" fill="#7A00FF" cx="93" cy="24" r="13"></circle>
                    <circle id="Oval" fill="#464353" cx="125.5" cy="24.5" r="12.5"></circle>
                    <circle id="Oval" fill="#7A00FF" cx="125.5" cy="24.5" r="9.5"></circle>
                    <circle id="Oval" fill="#7A00FF" cx="124.5" cy="52.5" r="1.5"></circle>
                    <circle id="Oval" fill="#7A00FF" opacity="0.5" cx="129.5" cy="52.5" r="1.5"></circle>
                    <path d="M108.53552,58.0848636 L108.417831,57.8521748 C109.145672,58.0942271 109.844567,58.4160061 110.501799,58.811657 C110.214751,56.3152796 100.647443,49.3058885 98.9251558,49.3058885 C97.2028683,49.3058885 95.2882586,46.32977 95.2882586,46.32977 C95.2882586,46.32977 90.313718,45.5627588 89.5473,44.7497844 C88.780882,43.9368099 83.6140193,44.4108056 82.3711018,44.6980757 C81.1281843,44.9853459 79.2135746,43.9310645 79.2135746,43.9310645 C79.2135746,43.9310645 78.1601087,42.2074437 76.8224653,42.2074437 C75.484822,42.2074437 74.0524528,40.2884793 74.0524528,40.2884793 C74.0524528,40.2884793 72.8037943,39.1393988 71.6556026,38.9440551 C70.5074109,38.7487114 69.0721713,37.5077045 68.4004791,36.5453496 C67.728787,35.5829947 64.3818081,35.108999 62.4700689,35.3962691 C60.5583297,35.6835392 55.3885965,35.0055817 55.3885965,35.0055817 C57.4926578,34.0460995 58.0007327,31.7421931 58.0007327,31.7421931 C56.1176982,31.6445212 51.168992,27.4848498 51.168992,27.4848498 C51.168992,27.4848498 51.372796,28.829274 51.6081753,30.7051479 L51.2895521,30.2943517 L51.2464949,30.3288241 C51.1453669,28.9905677 51.1309844,27.64716 51.2034377,26.3070423 C51.2034377,26.2036251 51.2206606,26.1002078 51.2264015,25.9939179 C53.7240878,23.8040562 54.8029369,20.4090245 54.0279893,17.1775977 C53.9763207,16.9592724 53.9160406,16.7466926 53.8471491,16.5369854 C54.2134411,16.689456 54.6004467,16.7862823 54.9953408,16.8242555 L55.1991449,16.8242555 C55.6795077,16.8274209 56.1382257,16.6245503 56.4592853,16.2669514 L56.4592853,16.2669514 C56.5130871,16.1988801 56.5601904,16.1257653 56.5999388,16.0486261 C56.60963,16.0339385 56.6182633,16.0185785 56.6257731,16.0026629 C56.6598961,15.9321468 56.6886818,15.8591666 56.7118875,15.7843376 C56.7199337,15.7578813 56.72664,15.7310352 56.7319808,15.703902 C56.7464882,15.6451591 56.7579851,15.5857124 56.7664266,15.5257945 C56.7664266,15.4769586 56.7664266,15.42525 56.7664266,15.3735414 C56.7664266,15.3218327 56.7664266,15.2988511 56.7664266,15.261506 C56.7545857,14.8198536 56.657096,14.3847128 56.4793786,13.9802812 C56.1779783,13.2391243 55.7445359,12.5065855 55.7761112,11.7051019 C55.7761112,11.6390297 55.7904636,11.5758303 55.799075,11.5126309 C55.8794485,10.8835093 56.2095536,10.3003509 56.4076167,9.69421098 L56.4076167,9.66835667 C56.4363214,9.57930293 56.4592853,9.49024919 56.4793786,9.40119545 C56.4887306,9.37489829 56.4964008,9.3480321 56.5023425,9.32075982 C56.523726,9.21553988 56.53811,9.10901597 56.5453997,9.00188998 C56.5453997,9.00188998 56.5453997,8.98752647 56.5453997,8.97890837 C56.6200321,7.77811924 55.6526806,6.72958329 54.5561575,6.24409677 C53.5744536,5.80744618 52.4520962,5.68966543 51.5536362,5.09501627 C50.5288751,4.41993148 49.9662611,3.25074207 49.2084546,2.28264175 C48.1061906,0.875018135 46.3810325,-0.176390523 44.6156877,0.0246985646 C43.5277761,0.148224718 42.5403312,0.719892268 41.4581605,0.941090264 C39.8133759,1.28294171 38.0738655,0.785964396 36.4376923,1.16803366 C36.0404182,1.23409093 35.6788357,1.43738439 35.4158016,1.74257391 C35.3058705,1.89659636 35.2349478,2.07502617 35.2091271,2.26253284 L35.2091271,2.26253284 C35.1860935,2.4360478 35.1860935,2.61184951 35.2091271,2.78536447 L35.2091271,2.79972797 C35.2276344,2.96530034 35.2573645,3.12942249 35.298112,3.29095989 L35.3239463,3.39150443 C35.3239463,3.42597685 35.3382987,3.45757656 35.3469101,3.49204898 C35.3555216,3.52652139 35.3842264,3.62706593 35.4014492,3.69313806 C35.4330245,3.80517341 35.4588588,3.91720876 35.4875636,4.03211681 L35.4875636,4.07233463 C35.5133979,4.19011538 35.5392322,4.30789613 35.5593256,4.42854958 L35.5593256,4.42854958 C35.6056389,4.67726328 35.6363176,4.92863943 35.6511809,5.18119731 L35.6511809,5.18119731 C35.718702,5.89197636 35.5653243,6.60628656 35.2119976,7.2265606 C34.4943778,8.3756411 32.9701533,8.88410923 32.3070726,10.0820256 C32.1503961,10.3710738 32.0528152,10.6884572 32.0200246,11.0156536 L32.0200246,11.0156536 C32.0080846,11.1243843 32.0032901,11.2337821 32.0056722,11.3431415 L32.0056722,11.386232 C32.0056722,11.4810312 32.0056722,11.5758303 32.0315066,11.6735021 C32.0301275,11.696463 32.0301275,11.7194861 32.0315066,11.742447 C32.0462245,11.8276572 32.0653873,11.9120385 32.0889161,11.9952447 C32.0889161,12.0239717 32.1032685,12.049826 32.11188,12.0756803 C32.1435192,12.173961 32.181883,12.2699447 32.2266992,12.3629504 L32.2266992,12.3629504 C32.5338404,13.0035628 33.1136773,13.5321399 33.2342374,14.2273336 L33.2342374,14.2273336 C33.2342374,14.2474425 33.2342374,14.2675514 33.2485898,14.290533 C33.3146108,14.8133646 33.0993249,15.3247054 32.9873762,15.838919 C32.9726159,15.9014777 32.9611184,15.9647626 32.9529304,16.0285172 L32.9529304,16.0285172 C32.9529304,16.0486261 32.9529304,16.0687351 32.9529304,16.088844 C32.9529304,16.1089529 32.9529304,16.175025 32.9529304,16.2209882 C32.9529304,16.2669514 32.9529304,16.2698241 32.9529304,16.2956785 C32.9529304,16.3215328 32.9529304,16.3732414 32.9529304,16.4105865 C32.9514045,16.4373766 32.9514045,16.464232 32.9529304,16.4910221 C32.9529304,16.5283673 32.9529304,16.5657124 32.9529304,16.6001848 C32.9529304,16.6346572 32.9529304,16.6518934 32.9529304,16.6777477 C32.9529304,16.703602 32.9701533,16.7495653 32.9816352,16.7840377 L33.0017286,16.8558552 C33.0152988,16.8901386 33.0306285,16.9236981 33.0476562,16.9563997 L33.0792315,17.0195992 C33.1002219,17.0544263 33.1232248,17.0879982 33.148123,17.1201437 C33.1586771,17.1361397 33.1701796,17.1514883 33.1825688,17.1661069 C33.2216559,17.2122592 33.2659668,17.2537123 33.3146108,17.2896331 C33.7107369,17.5769032 34.32789,17.502213 34.6522541,17.8641733 C34.6887669,17.9080097 34.7196273,17.9562665 34.7441095,18.0078084 L34.7613324,18.0422808 C34.7850243,18.0928766 34.8033056,18.1458371 34.8158715,18.2002794 L34.8158715,18.2002794 C34.8617563,18.4161901 34.8617563,18.6393446 34.8158715,18.8552553 C34.7010523,19.4297955 34.4570616,19.9526271 34.32789,20.5156766 C34.3020557,20.6305846 34.2848328,20.7483654 34.2704804,20.8661461 L34.2704804,20.8661461 C34.2704804,20.9207275 34.2704804,20.9724361 34.256128,21.0241447 L34.256128,21.0586171 C34.256128,21.1074531 34.256128,21.1591617 34.256128,21.2079976 C34.256128,21.2568335 34.256128,21.2338519 34.256128,21.2482154 C34.256128,21.3200329 34.256128,21.3947232 34.2733509,21.4665407 C34.2905738,21.5383582 34.2733509,21.5354855 34.2905738,21.5670853 L34.3077966,21.6503936 C34.3077966,21.6877387 34.32789,21.7250838 34.3393719,21.7624289 L34.3652062,21.8342465 C34.3795586,21.8744643 34.399652,21.9146821 34.4168748,21.9548999 C34.4253113,21.9736677 34.4348978,21.9918962 34.4455796,22.0094812 C34.4745182,22.0682572 34.5091285,22.1240615 34.5489169,22.1760979 C34.8962449,22.6472209 35.4674703,22.8052195 36.0702709,22.8080922 C36.4121125,22.8061588 36.7527669,22.767637 37.0864206,22.6931841 C37.161053,22.8684189 37.238556,23.0436537 37.3217999,23.2131431 C37.7379234,24.0516677 38.2832848,24.8194485 38.9378797,25.4883225 C38.9378797,25.5773762 38.9206568,25.6635572 38.9091749,25.7554837 C38.8431539,26.4104596 38.7627805,27.1142714 38.6709251,27.8238286 C37.927471,27.4819771 37.3533752,27.3498329 37.1266073,27.5968852 C36.1649967,28.6540392 37.1266073,32.3023698 37.1266073,32.3023698 C37.1266073,32.3023698 32.4333737,32.3023698 31.2851819,33.3566512 C30.1369902,34.4109325 28.0329289,33.3566512 28.0329289,33.3566512 C28.0329289,33.3566512 23.72721,33.839265 24.0142579,34.7039481 C24.3013058,35.5686312 21.7178745,34.7039481 21.7178745,34.7039481 C21.7178745,34.7039481 19.8979906,34.8964191 19.9955869,36.1402987 C20.0931832,37.3841783 17.2198334,37.9615913 17.6016072,38.8262744 C17.9833809,39.6909575 15.8793196,40.262625 15.8793196,40.262625 C15.8793196,40.262625 13.7752583,40.1678259 14.5416763,41.4117055 L14.5416763,41.4117055 C14.5416763,41.4117055 13.3934846,44.1005539 12.437615,44.2844068 C11.4817454,44.4682596 10.2359573,46.6831123 10.2359573,46.6831123 C10.2359573,46.6831123 6.55026194,47.3553244 6.71674974,48.5072776 C6.88323754,49.6592308 1.05042363,57.9010107 1.05042363,57.9010107 C1.05042363,57.9010107 -0.864186049,61.8509749 0.476327777,64.7322943 C1.8168416,67.6136136 2.77271121,69.5325781 3.05975913,70.5868594 C3.34680706,71.6411408 6.82582796,76.283426 6.79712316,77.1481091 C6.79712316,77.418143 7.65826695,78.8717298 8.83229298,80.716004 L8.48783546,81.072219 L7.73289941,81.850721 C7.73289941,81.850721 5.33891969,87.802958 8.20939897,88.0902281 C10.634954,88.331535 12.3773349,88.5067698 13.2614425,88.2654629 C13.4049321,88.2319958 13.5411172,88.172612 13.6633096,88.0902281 L13.6977554,88.0643738 C14.7426098,89.6070144 15.4831935,90.6842774 15.4831935,90.6842774 C15.4831935,90.6842774 15.5865307,90.5320242 15.7702414,90.2706084 L16.0572893,90.6814047 C16.0572893,90.6814047 16.2869277,90.3539167 16.6773129,89.8195943 C16.5510118,92.4308797 16.5337889,95.0048201 16.5337889,95.0048201 C16.5337889,95.0048201 17.7795769,94.8123491 17.2054811,100.572115 C16.6313852,106.331881 20.6500562,111.034493 20.6500562,111.034493 L20.6500562,119.580779 L20.6500562,119.580779 C20.6500562,119.580779 20.6500562,119.796232 20.6902429,120.15532 C20.7964506,121.381963 21.1466491,124.274773 22.1800217,126.187992 C23.5205355,128.681497 22.1800217,135.211147 22.1800217,135.211147 C22.1800217,135.211147 22.0910368,140.537135 22.4125305,147.17882 C22.4125305,147.3598 22.4326238,147.546526 22.4412353,147.730379 C16.6371262,152.585244 10.4110566,159.020095 10.4110566,159.020095 C10.7159065,159.105436 11.0062001,159.236169 11.2722004,159.407909 L10.9248724,159.853178 L9.34323829,161.803742 L9.34323829,161.803742 L8.12041411,163.314783 L8.12041411,163.314783 L10.0579876,169.287129 L12.1735309,168.459791 C12.1735309,168.459791 13.3217226,170.450573 13.0806023,171.800743 C13.0439752,172.044832 12.9451138,172.275358 12.7935544,172.470082 C12.7204893,172.56809 12.669561,172.680807 12.6442895,172.800443 C12.090287,174.963587 14.4010228,184.291248 18.0666248,184.696299 C18.0666248,184.696299 19.3095424,185.107095 19.708539,183.986741 C19.9008611,183.446673 19.8979906,182.550391 19.4674187,181.093931 C19.4674187,181.093931 17.5298452,178.755552 18.7842447,176.236193 C19.5190874,174.762498 20.7333001,172.788952 21.6116668,171.395692 L21.9733471,170.821151 C22.7627289,171.817979 23.2478399,172.458591 23.2478399,172.458591 L26.0666506,169.425019 C26.1269307,169.55429 26.1872107,169.680689 26.2503613,169.801343 C26.4612923,170.223924 26.7050765,170.629265 26.979463,171.013622 L28.8912022,178.600426 L29.6633612,178.428064 C29.6461383,178.611917 29.6346564,178.807261 29.6231744,179.002605 C29.5600239,180.364265 29.6231744,182.130976 30.2518094,183.392092 C30.722568,184.35732 31.5176908,185.029532 32.8151474,184.999001 C37.2643903,184.88877 38.556106,182.478573 38.556106,182.478573 L38.556106,176.445901 L40.0860714,176.104049 C40.0860714,176.104049 39.9741227,162.849406 39.5808671,155.457945 C39.5808671,155.294201 39.5636442,155.136203 39.5550328,154.981077 C39.5550328,154.958095 39.5550328,154.935114 39.5550328,154.915005 L49.3806834,144.340591 L50.1356194,144.038958 C56.4506738,141.54258 56.5482701,135.110602 56.5482701,135.110602 C56.5482701,135.110602 56.5482701,131.559943 57.3118176,128.583825 C58.0753651,125.607706 57.4094139,110.149701 55.9741743,106.311772 C54.5389346,102.473843 54.0595646,98.1475552 54.0595646,98.1475552 C54.0595646,98.1475552 55.4948042,96.1366643 54.0595646,94.4618795 C53.6541586,93.9605867 53.3163744,93.4081234 53.0548968,92.8186944 L54.9235789,92.5113154 L56,92.3332079 L56.5741045,92.235536 C56.2870565,94.775004 56.2382584,96.7255681 56.918562,97.1909457 C59.0254938,98.6272963 66.1040957,93.8298852 66.1040957,93.8298852 C63.5206643,93.8298852 62.0854247,74.5339509 62.6107224,74.0542098 C63.1360201,73.5744687 63.9196609,63.9049563 63.2336164,62.1813356 C62.5475718,60.4577148 65.6419485,52.7617481 65.6419485,52.7617481 L66.1184481,52.0550636 L66.1184481,52.0550636 C66.1184481,52.0550636 77.4109136,56.9874917 78.6538311,57.9326104 C79.8967486,58.8777291 83.8206938,55.6344494 84.4895155,56.8898198 C85.1583372,58.1451903 89.3693303,60.0153188 89.3693303,60.0153188 C89.3693303,60.0153188 95.5896589,59.3861972 96.2584806,60.9230924 C96.9273022,62.4599876 100.948844,66.0594822 100.948844,66.0594822 C100.950958,65.2155522 101.001754,64.372448 101.100979,63.5343778 C101.184223,63.7325942 101.264596,63.9336833 101.350711,64.1376451 C103.256709,68.6506588 106.428589,74.3644616 109.367959,71.2906712 C112.697715,67.7974665 110.163082,61.3396341 108.53552,58.0848636 Z M23.4286801,78.4810425 L23.4286801,78.5356238 L23.4057163,78.5126422 L23.4286801,78.4810425 Z M21.2011882,56.3382612 L19.984105,69.1821085 L17.5929958,71.6612497 L17.3059478,71.965756 L14.8344652,69.2740349 C14.8344652,69.2740349 13.5886772,68.6994947 14.8344652,67.6423406 C16.0802532,66.5851866 12.7304038,64.1950991 12.7304038,64.1950991 C12.7304038,64.1950991 12.6328076,62.4714784 13.8785956,61.9888646 C15.1243836,61.5062508 16.7490748,58.340534 16.7490748,58.340534 L21.2471159,56.042373 L21.2471159,56.042373 L21.2471159,56.042373 L21.2011882,56.3382612 Z M37.2069807,122.077157 C37.2941483,121.996271 37.3904881,121.925889 37.4940286,121.867449 C38.0308083,121.562943 38.3752658,121.896176 38.5532355,122.482208 C38.7877218,123.46436 38.7166098,124.494779 38.3494315,125.435344 C37.6806098,126.97224 39.3081716,133.116948 39.3081716,133.116948 C39.3081716,133.116948 37.2012398,134.073557 36.819466,135.900595 C36.7627433,136.125116 36.6654595,136.337359 36.5324181,136.526844 C36.5065838,136.365973 36.4836199,136.210847 36.4606561,136.061466 C36.2740749,134.912386 36.1736082,134.171229 36.1736082,134.171229 C35.8304561,132.69281 35.7652383,131.163389 35.9812861,129.661088 C36.2855569,127.813941 36.8998394,124.062193 37.1294778,122.640206 C37.1868874,122.295482 37.2184626,122.088647 37.2213331,122.065666 L37.2069807,122.077157 Z" id="Shape" fill="url(#linearGradient-1)"></path>
                    <path d="M51.2484076,28.4615385 L51.7070064,28 L53,32.1185897 L52.5031847,33 L51,33 C51,33 51.0530786,30.7564103 51.089172,30.6762821 C51.1252654,30.5961538 51.2484076,28.4615385 51.2484076,28.4615385 Z" id="Path" fill="#464353"></path>
                    <path d="M39,175 L39,183.34117 C39,183.34117 37.7012877,185.879918 33.2279453,185.995178 C32.1147062,186.064203 31.081377,185.386817 30.6507228,184.305712 C30.0273409,182.977191 29.9551903,181.114836 30.0186829,179.680154 C30.0505519,178.962488 30.1228291,178.247435 30.2351349,177.538749 L39,175 Z" id="Path" fill="#3F3D56"></path>
                    <path d="M39,176 L39,178.206092 L30,180 C30.0319353,179.38663 30.1043629,178.775494 30.2169023,178.169799 L39,176 Z" id="Path" fill="#000000" opacity="0.1"></path>
                    <path d="M40,176.495854 L29.0481821,179 L27.1779486,171.392248 C26.9101202,171.006409 26.6716542,170.599878 26.4646763,170.176279 C26.3439255,169.933663 26.2259829,169.676605 26.1136565,169.407994 C24.0749335,164.610547 23.1678983,155.957235 22.7803725,148.594987 C22.7607153,148.222398 22.7410582,147.852697 22.7242093,147.488773 C22.4096955,140.82838 22.4967484,135.485046 22.4967484,135.485046 C22.4967484,135.485046 23.8081584,128.937296 22.4967484,126.436038 C21.4858114,124.506662 21.1432161,121.60682 21.0393142,120.370633 C21.0112326,120.00382 21,119.792975 21,119.792975 L21.2021874,119.247088 L22.027786,117 L31.1093704,117 L36.3887082,121.595267 L37.1918416,122.294233 L37.1019805,122.87189 C36.8745197,124.298705 36.2735738,128.07081 35.9787171,129.913538 C35.7673878,131.420138 35.8311949,132.954068 36.1668637,134.436597 C36.1668637,134.436597 36.2763819,135.170223 36.4476796,136.334203 C36.489802,136.623032 36.5375406,136.92919 36.5908957,137.261344 C37.2620455,141.530234 38.5201005,149.325724 39.0564588,151.18867 C39.2052912,151.699898 39.3372746,152.982298 39.4355602,154.718159 C39.4580254,155.064754 39.4776825,155.42579 39.4973396,155.804155 C39.8904818,163.20395 40,176.495854 40,176.495854 Z" id="Path" fill="#514E7F"></path>
                    <path d="M39,183 L39,183.061907 C39,183.061907 37.755617,184.912469 33.4694089,184.996485 C32.4027402,185.046799 31.4126385,184.553034 31,183.764988 C32.9218804,184.14306 36.0411338,184.386264 39,183 Z" id="Path" fill="#000000" opacity="0.1"></path>
                    <path d="M109.415345,72.1338762 C106.568588,75.1950792 103.522447,69.5030204 101.680916,65.0073267 C100.647997,62.4768852 100,60.3222803 100,60.3222803 L107.576584,57 C107.576584,57 108.041813,57.766018 108.626118,58.9795971 C110.196265,62.2215459 112.641486,68.6538019 109.415345,72.1338762 Z" id="Path" fill="#A1616A"></path>
                    <path d="M51.6820152,27.1248639 C51.5590178,29.9083733 51.7671581,32.6966597 52.3020406,35.4308413 C52.3020406,35.4308413 36.6863787,37.1179051 38.089151,34.6829097 C38.9111756,33.254529 39.4442291,29.4839415 39.7416169,26.6018742 C39.9576438,24.560527 40.0530323,22.9662517 40.0530323,22.9662517 C40.0530323,22.9662517 55.0150023,16.9687399 52.7705666,22.0299313 C52.1000414,23.5398534 51.7886259,25.328141 51.6820152,27.1248639 Z" id="Path" fill="#A1616A"></path>
                    <polygon id="Path" fill="#464353" points="53.1788523 68.7349495 51 94 61 92.3991919 59.2522575 71.5632323 59.8348383 66"></polygon>
                    <polygon id="Path" fill="#000000" opacity="0.1" points="61 92.3991919 56.6581246 93.0949495 51 94 51.3989517 89.389899 53.1811299 68.7349495 55.4496214 67.8016162 57.0570763 67.1426263 59.8351776 66 59.2527665 71.5632323"></polygon>
                    <path d="M18.9714286,176.554699 C17.679803,179.052319 19.6748768,181.37011 19.6748768,181.37011 C20.1182266,182.817303 20.1211823,183.702174 19.9231527,184.224533 C19.5123153,185.334904 18.2325123,184.926721 18.2325123,184.926721 C14.2068966,184.498558 11.7684729,174.011409 12.8029557,172.809697 C13.8374384,171.607985 12.173399,168.847758 12.173399,168.847758 L9.99507389,169.666978 L8,163.746905 L9.2591133,162.248333 L10.8876847,160.313034 L11.9901478,159 L23,170.095141 C23,170.095141 22.5300493,170.777348 21.8827586,171.756415 C20.9783251,173.129392 19.7280788,175.098944 18.9714286,176.554699 Z" id="Path" fill="#3F3D56"></path>
                    <path d="M40,155.58258 L26.7447952,170 C24.4214238,165.397772 23.4224312,156.164372 23,148.369529 C25.4689389,146.285501 27.8522498,144.490922 29.6561451,143.625471 C29.6561451,143.625471 35.7585628,139.147706 37.0458361,137 C37.7280054,141.278046 39.0067159,149.090255 39.5518805,150.957197 C39.7316991,151.570827 39.8801209,153.293044 40,155.58258 Z" id="Path" fill="#000000" opacity="0.1"></path>
                    <polygon id="Path" fill="#000000" opacity="0.1" points="36 122 21 119.445003 21.8154586 117 30.785503 117"></polygon>
                    <path d="M40,155.333653 L26.4553541,170 C24.3724404,165.214928 23.4508224,156.583937 23.0570661,149.240681 C23.037093,148.869053 23.0171198,148.500306 23,148.13732 C25.4909366,146.04007 27.9019805,144.236665 29.7109768,143.366652 C29.7109768,143.366652 35.4033233,139.209603 36.9526687,137 C36.9954683,137.288084 37.0439745,137.593453 37.0981873,137.924749 C37.7801276,142.182628 39.0584089,149.95801 39.6033904,151.81615 C39.7546156,152.323178 39.8801611,153.60227 40,155.333653 Z" id="Path" fill="#000000" opacity="0.1"></path>
                    <path d="M23,170.307004 C23,170.307004 22.5732064,171.002238 21.9853587,172 C19.8513909,169.076527 14.7916057,162.345267 12,160.338107 L13.0012201,159 L23,170.307004 Z" id="Path" fill="#000000" opacity="0.1"></path>
                    <path d="M57.67745,128.9169 C56.9171192,131.909804 56.9171192,135.478711 56.9171192,135.478711 C56.9171192,135.478711 56.819934,141.94211 50.5314839,144.451634 L49.7797283,144.741083 L23.7684121,173 C23.7684121,173 14.144225,160.264239 11,159.49141 C11,159.49141 23.6712269,146.272269 29.6738384,143.377778 C29.6738384,143.377778 36.9169895,138.072176 37.2971549,136.239963 C37.6773203,134.40775 39.7753759,133.44099 39.7753759,133.44099 C39.7753759,133.44099 38.1546708,127.26704 38.8206749,125.721382 C39.1863344,124.776714 39.2571661,123.741227 39.0236203,122.754528 C38.8464003,122.17563 38.503394,121.831186 37.9688757,122.135107 C37.8657714,122.19399 37.7698374,122.264906 37.6830371,122.346405 L21.2015811,119.836881 L21.2015811,111.260504 C21.2015811,111.260504 17.1998401,106.5338 17.7715174,100.744818 C18.3431947,94.9558357 17.102655,95.1497666 17.102655,95.1497666 C17.102655,95.1497666 17.1626811,85.3721755 17.9773212,84.555929 C18.7919613,83.7396825 26.6182233,80 26.6182233,80 L51.1546122,84.414099 L52.166481,89.1668534 C52.166481,89.1668534 53.0239969,92.9470588 54.4531901,94.6258637 C55.8823833,96.3046685 54.4531901,98.3279178 54.4531901,98.3279178 C54.4531901,98.3279178 54.9305406,102.669655 56.3597338,106.5338 C57.788927,110.397946 58.4406391,125.926891 57.67745,128.9169 Z" id="Path" fill="#514E7F"></path>
                    <path d="M52.757733,21.193827 C52.0497016,22.8256595 51.7208669,24.7704879 51.6082928,26.7001222 C47.9249512,29.9728278 42.3909601,29.7247452 39,26.1349065 C39.2281106,23.9287418 39.3288347,22.2057455 39.3288347,22.2057455 C39.3288347,22.2057455 55.1277129,15.7239974 52.757733,21.193827 Z" id="Path" fill="#000000" opacity="0.1"></path>
                    <path d="M54,20.0059615 C53.9971183,24.7693897 50.2826513,28.7054944 45.5271871,28.9843351 C40.7717228,29.2631758 36.622661,25.7881558 36.0630519,21.0577096 C35.5034429,16.3272634 38.7271477,11.9801239 43.4164199,11.1417534 C48.1056921,10.3033828 52.6360624,13.2642116 53.7503312,17.895493 C53.9166215,18.5866527 54.0004282,19.2950806 54,20.0059615 Z" id="Path" fill="#A1616A"></path>
                    <path d="M48.0927491,34.4054088 C48.0927491,34.4054088 41.7236645,31.3939301 41.3263114,31.0032833 C40.9289582,30.6126365 27.7162522,65.2111153 27.7162522,65.2111153 L24,82.4112353 C24,82.4112353 43.819059,91.0579397 48.1070424,89.8918299 C52.3950257,88.7257201 52.7752269,89.8918299 52.7752269,89.8918299 C52.7752269,89.8918299 57.1604045,64.8204685 58.5897323,62.5873682 C60.0190601,60.3542678 57.2547402,37.6122108 57.2547402,37.6122108 L52.3006901,31 L48.0927491,34.4054088 Z" id="Path" fill="#000000" opacity="0.1"></path>
                    <path d="M48.0927491,34.4054088 C48.0927491,34.4054088 41.7236645,31.3939301 41.3263114,31.0032833 C40.9289582,30.6126365 27.7162522,65.2111153 27.7162522,65.2111153 L24,82.4112353 C24,82.4112353 43.819059,91.0579397 48.1070424,89.8918299 C52.3950257,88.7257201 52.7752269,89.8918299 52.7752269,89.8918299 C52.7752269,89.8918299 57.1604045,64.8204685 58.5897323,62.5873682 C60.0190601,60.3542678 57.2547402,37.6122108 57.2547402,37.6122108 L52.3006901,31 L48.0927491,34.4054088 Z" id="Path" fill="#000000" opacity="0.1"></path>
                    <path d="M58.5877709,62.5844709 C58.3018507,63.0479998 57.8701111,64.4881463 57.3869059,66.4821952 C57.0495201,67.8698667 56.6835422,69.5228283 56.3089866,71.3011468 C54.6220573,79.3269022 52.7750125,89.8918633 52.7750125,89.8918633 C52.7750125,89.8918633 52.6577852,89.5361996 51.8314758,89.413758 C51.1624224,89.3146386 50.0244599,89.3700288 48.1145127,89.8918633 C43.8257091,91.0579738 24,82.4083492 24,82.4083492 L24.5718405,79.7846006 L27.7169631,65.2082195 C27.7169631,65.2082195 40.9665068,30.6126366 41.3467807,31.0032836 C41.5783761,31.239421 44.0544453,32.4609217 45.9415189,33.3675726 C47.1452431,33.9506279 48.1145127,34.4024957 48.1145127,34.4024957 L52.117396,31.1782002 L52.3375546,31 L57.2696786,37.6092995 C57.2696786,37.6092995 60.0173721,60.348454 58.5877709,62.5844709 Z" id="Path" fill="#7A00FF"></path>
                    <path d="M42.5470966,38.7037897 C43.1090447,40.9095816 41.7997056,44.5352265 41.7997056,44.5352265 C41.7997056,44.5352265 37.304121,55.8194726 35.9919722,61.0342056 C34.6798234,66.2489385 27.1750067,76.7587193 27.1750067,76.7587193 C27.1750067,76.7587193 26.0735884,77.8859966 24.5310409,79.4550059 C24.3596468,79.6299777 24.1798234,79.8106863 24,80 L27.0907145,65.6580502 C27.0907145,65.6580502 40.1110516,31.6188665 40.4847471,32.0032308 C40.7123361,32.2355704 43.1455713,33.4374258 45,34.3294951 C43.8395772,35.4080097 42.1734011,37.2437793 42.5470966,38.7037897 Z" id="Path" fill="#000000" opacity="0.1"></path>
                    <path d="M42.3648676,38.1332674 C42.9450962,40.3521166 41.5931635,43.9992239 41.5931635,43.9992239 C41.5931635,43.9992239 36.9513344,55.3502682 35.5965006,60.5958702 C34.2416667,65.8414723 26.4927133,76.4134668 26.4927133,76.4134668 C26.4927133,76.4134668 25.3554651,77.547417 23.7627375,79.1257143 C23.5741632,79.3132633 23.3768855,79.506583 23.1825089,79.7027882 C20.0724834,82.7814776 15.7004606,87.0979906 14.3340222,88.3588972 C14.1338433,88.5464462 13.9974896,88.6676317 13.9394667,88.7080269 C13.815969,88.7907741 13.6783291,88.8504197 13.5333067,88.8840345 C12.6397546,89.1264055 10.8787607,88.950398 8.4272947,88.7080269 C5.52615152,88.41949 7.94570494,82.4583162 7.94570494,82.4583162 L8.70870559,81.676381 L9.40497995,80.9608094 L17.307694,72.8731182 L17.8879226,72.2643052 L20.3045749,69.7857726 L21.5346596,56.9170239 L21.563671,56.6082894 C21.563671,56.6082894 21.2039293,55.7917297 20.6498109,54.54525 C19.173129,51.1722529 16.2719859,44.6628589 15.2101675,42.5594244 C15.0883194,42.314168 14.9925817,42.1323897 14.9200531,42.0198603 C14.9200531,42.0054335 14.9055474,41.9910066 14.896844,41.9794651 C14.1222388,40.7301001 16.2487767,40.8253173 16.2487767,40.8253173 C16.2487767,40.8253173 18.3782158,40.2482433 17.9894626,39.3826324 C17.6007094,38.5170215 20.5047538,37.9399476 20.409016,36.6905825 C20.3132783,35.4412175 22.1497019,35.2478977 22.1497019,35.2478977 C22.1497019,35.2478977 24.7607308,36.1135086 24.4706165,35.2478977 C24.1805022,34.3822868 28.5322169,33.9004301 28.5322169,33.9004301 C28.5322169,33.9004301 30.6587549,34.9593607 31.8192121,33.9004301 C32.9796694,32.8414994 37.7404454,32.8443848 37.7404454,32.8443848 C37.7404454,32.8443848 36.7685624,29.1886214 37.7404454,28.1296907 C38.7123283,27.0707601 46,32.8443848 46,32.8443848 C46,32.8443848 41.784639,35.9173035 42.3648676,38.1332674 Z" id="Path" fill="#464353"></path>
                    <path d="M19,87.6147118 C19,87.6147118 27.0129868,98.9428938 32.6107834,95.2655916 C38.2085801,91.5882895 25.0814139,82 25.0814139,82 L19,87.6147118 Z" id="Path" fill="#000000" opacity="0.1"></path>
                    <path d="M19,86.6147118 C19,86.6147118 27.0129868,97.9428938 32.6107834,94.2655916 C38.2085801,90.5882895 25.0814139,81 25.0814139,81 L19,86.6147118 Z" id="Path" fill="#A1616A"></path>
                    <path d="M56.8091818,94 C57.4022486,88.6530192 59.1224235,80.6194781 57.7198626,78.1826955 C57.025609,76.9744695 56.511243,74.6712887 56.1346034,72.1502787 C55.9322299,70.7939289 55.7720175,69.3736825 55.6427233,68.0260458 C55.2998126,64.4507425 55.1901936,61.3895161 55.1901936,61.3895161 C55.1901936,61.3895161 51.8173017,45.8452242 52.4722049,42.6503958 C52.8825734,40.6521759 52.4103685,35.6450087 52,32.1771678 L52.2164272,32 L57.0649594,38.5842507 C57.0649594,38.5842507 59.7801374,61.2384878 58.3747658,63.4661545 C58.0936914,63.9279524 57.6692692,65.3627208 57.1942536,67.3493231 L59.8757027,66.1875673 L59.313554,71.9005012 L61,93.2971378 L56.8091818,94 Z" id="Path" fill="#000000" opacity="0.1"></path>
                    <path d="M52,28 C52,28 56.970791,32.1615997 58.8622289,32.2566397 C58.8622289,32.2566397 58.3518867,34.5606395 56.2384355,35.5225595 C56.2384355,35.5225595 61.4283565,36.2079994 63.3515106,35.9113594 C65.2746647,35.6147195 68.6365802,36.0985594 69.3083866,37.0633594 C69.9801931,38.0281593 71.4391375,39.2665592 72.5924533,39.4566392 C73.7457691,39.6467192 75,40.8015991 75,40.8015991 L66.5375454,53.2806382 C66.5375454,53.2806382 63.4610756,60.9615977 64.132882,62.6895976 C64.8046885,64.4175975 64.0348502,74.1145568 63.5072082,74.5926368 C62.9795663,75.0707167 64.421211,94.3695954 67.0161715,94.3695954 C67.0161715,94.3695954 59.9059797,99.170555 57.7896452,97.7305551 C55.6733108,96.2905552 60.4826376,80.7385563 58.3663031,77.1846366 C56.2499687,73.6307168 55.7713426,60.5324777 55.7713426,60.5324777 C55.7713426,60.5324777 52.3113953,45.1215988 52.986085,41.953599 C53.6607747,38.7855992 52,28 52,28 Z" id="Path" fill="#464353"></path>
                    <path d="M109,58.9806521 C106.425682,58.1838051 102.481862,58.1608742 101.753772,65 C100.676083,62.4718739 100,60.3192404 100,60.3192404 L107.904976,57 C107.904976,57 108.390369,57.7681834 109,58.9806521 Z" id="Path" fill="#000000" opacity="0.1"></path>
                    <path d="M69.7638456,41 L74.4677535,41.568306 C74.4677535,41.568306 75.9062575,43.4636066 77.2440662,43.4636066 C78.5818749,43.4636066 79.6406138,45.1685246 79.6406138,45.1685246 C79.6406138,45.1685246 81.559578,46.2085246 82.8053225,45.9243716 C84.0510669,45.6402186 89.2296811,45.1713661 89.9978422,45.9755191 C90.7660034,46.7796721 95.7518581,47.5355191 95.7518581,47.5355191 C95.7518581,47.5355191 97.6708223,50.4708197 99.3970271,50.4708197 C101.123232,50.4708197 110.712299,57.3871038 111,59.8478689 C111,59.8478689 101.505874,53.8806557 101.410933,67 C101.410933,67 97.3831216,63.4480874 96.7099017,61.9335519 C96.0366819,60.4190164 89.8050827,61.0356284 89.8050827,61.0356284 C89.8050827,61.0356284 85.5873891,59.1857923 84.9141693,57.9554098 C84.2409494,56.7250273 80.3109566,59.9160656 79.0652122,58.9812022 C77.8194678,58.0463388 66.5013186,53.1816393 66.5013186,53.1816393 L63,46.6830601 L69.7638456,41 Z" id="Path" fill="#464353"></path>
                    <circle id="Oval" fill="#3F3D56" cx="48" cy="51" r="1"></circle>
                    <circle id="Oval" fill="#3F3D56" cx="47" cy="68" r="1"></circle>
                    <circle id="Oval" fill="#3F3D56" cx="48" cy="59" r="1"></circle>
                    <circle id="Oval" fill="#3F3D56" cx="45" cy="77" r="1"></circle>
                    <path d="M20,184.21656 C19.621441,185.338347 18.4421887,184.925968 18.4421887,184.925968 C14.7328547,184.493402 12.4860114,173.898433 13.4392176,172.684366 C14.3924239,171.470299 12.8455063,168.667275 12.8455063,168.667275 L10.8383263,169.494917 L9,163.513979 L10.1601882,162 C11.3149294,164.119571 12.9680614,167.167715 13.3575142,167.946333 C14.0969829,169.560946 14.4478309,171.344154 14.3788066,173.137118 C14.3161674,175.011568 16.369646,183.974324 20,184.21656 Z" id="Path" fill="#000000" opacity="0.1"></path>
                    <path d="M53.9911671,17.8818608 C53.7909541,17.8150118 53.590741,17.7365368 53.4023053,17.6580619 C52.7280585,17.3877593 52.01848,17.076766 51.6092211,16.4954701 C51.2352938,15.9548649 51.1145771,15.1933673 50.531604,14.8852805 C49.8603015,14.53069 49.0594494,15.0102591 48.3322051,15.1759285 C47.4665783,15.3764755 46.5656197,15.1381442 45.7235473,14.8329639 C44.4692717,14.3766466 42.7174078,13.5366741 41.4307447,14.4057114 C40.4296797,15.0800146 40.8183285,16.5100025 40.5621736,17.5301768 C40.1646919,19.1142081 38.4599369,20.1460083 38.1390072,21.7474784 C37.9947361,22.4537529 38.088954,23.3169773 37.5089251,23.7558557 C37.3396422,23.8749907 37.1471428,23.9581271 36.9436178,24 C35.3923879,20.8992237 35.7759053,17.1955964 37.9305934,14.4687768 C40.0852815,11.7419571 43.6308875,10.4731661 47.0551514,11.2035642 C50.4794153,11.9339622 53.1780333,14.5346509 54,17.8963932 L53.9911671,17.8818608 Z" id="Path" fill="#000000" opacity="0.1"></path>
                    <path d="M47.047312,14.7045835 C47.867983,15.0094771 48.7611515,15.2475845 49.6166213,15.0443221 C50.3444956,14.8730009 51.1187683,14.3938824 51.779945,14.7539472 C52.3599245,15.0646483 52.4759204,15.8225267 52.8413075,16.362624 C53.2443933,16.9433737 53.9432686,17.2685935 54.6102451,17.5241234 C55.1075432,17.7563383 55.6394642,17.9054347 56.1848895,17.9654932 C56.7381572,18.0197003 57.2850259,17.8124732 57.6638373,17.4050697 C58.1800191,16.7807638 58.0234246,15.8457567 57.7160355,15.0994933 C57.4086463,14.3532299 56.9736617,13.6098702 57.0055606,12.8026281 C57.0432592,11.8443911 57.7363348,11.0110152 57.7943327,10.0556819 C57.8697301,8.84481872 56.8924645,7.78785421 55.7847036,7.29712069 C54.7929386,6.85865464 53.6590787,6.7366972 52.7514107,6.13562123 C51.7161472,5.45614404 51.1477673,4.27722209 50.3821943,3.30156254 C49.2686336,1.88162945 47.5257951,0.821761198 45.7423581,1.0250236 C44.6432968,1.1498848 43.6457321,1.72482703 42.5524706,1.94841567 C40.8908293,2.29396176 39.1334913,1.79161325 37.4805496,2.17781182 C37.0811834,2.24072838 36.7161617,2.44093559 36.4481861,2.7440428 C36.0422004,3.28994755 36.250993,4.05363344 36.4307867,4.70988064 C36.7526753,5.89170634 36.8889705,7.23033447 36.2480931,8.26987648 C35.5231187,9.44589469 33.9832731,9.9424357 33.3133967,11.1503951 C32.9204596,11.8692242 32.8956547,12.7331471 33.2466991,13.4733941 C33.5656878,14.1412563 34.183366,14.6842572 34.2790626,15.4189057 C34.3457603,15.9473879 34.1282679,16.4613514 34.0151719,16.9782187 C33.9020759,17.4950859 33.9339748,18.1397181 34.3602598,18.430093 C34.7865447,18.7204679 35.3839236,18.6478742 35.7116121,19.0108427 C35.9124124,19.3028655 35.9690143,19.6707318 35.8653066,20.0097323 C35.7493107,20.590482 35.5028194,21.1160605 35.372324,21.6851952 C35.2030363,22.249879 35.284373,22.860186 35.5956162,23.3606582 C36.1581963,24.1214404 37.2949562,24.0749804 38.205524,23.871718 C38.4683579,23.8298585 38.7188105,23.730734 38.9391982,23.5813431 C39.5191777,23.1428771 39.4176813,22.2804637 39.5597763,21.5748528 C39.8758651,19.977791 41.5549058,18.9411528 41.946392,17.3615135 C42.1986831,16.3422977 41.8158966,14.9107496 42.8018618,14.23708 C44.0836166,13.4095116 45.8119556,14.248695 47.047312,14.7045835 Z" id="Path" fill="#464353"></path>
                    <path d="M45,119 C45,119 53.7221365,124.782436 54,127 L45,119 Z" id="Path" fill="#000000" opacity="0.1"></path>
                    <path d="M45,123 C45,123 55.5632716,128.199743 54.9764232,130 L45,123 Z" id="Path" fill="#000000" opacity="0.1"></path>
                    <path d="M44,128 C44,128 49.631749,131.138235 50,133 L44,128 Z" id="Path" fill="#000000" opacity="0.1"></path>
                    <path d="M46,134 C46,134 50.0986828,136.547181 50.9196493,135.892379 C51.7406158,135.237576 46,134 46,134 Z" id="Path" fill="#000000" opacity="0.1"></path>
                    <path d="M41,137 C41,137 44.078256,141.706533 42.5969009,141.989038 C41.1155457,142.271543 41,137 41,137 Z" id="Path" fill="#000000" opacity="0.1"></path>
                    <path d="M28,51 C28,51 22.7024478,54.1282751 24.3004078,54.9118112 C25.8983678,55.6953473 28,51 28,51 Z" id="Path" fill="#000000" opacity="0.1"></path>
                    <path d="M28,40 C28,40 23.4510442,49.6466713 25.5561999,48.9655578 C27.6613555,48.2844444 28,40 28,40 Z" id="Path" fill="#000000" opacity="0.1"></path>
                    <path d="M83,49 C83,49 80.6198347,52.882 81.052592,55 L83,49 Z" id="Path" fill="#000000" opacity="0.1"></path>
                    <path d="M91,51 C91,51 86.3922036,55.4886712 87.0676044,56 L91,51 Z" id="Path" fill="#000000" opacity="0.1"></path>
                    <path d="M93.3402716,56 C93.3402716,56 92.2385251,58.892 94,59 L93.3402716,56 Z" id="Path" fill="#000000" opacity="0.1"></path>
                    <path d="M42.4806641,115.530643 C41.2746739,117.174888 41.2746739,120.089686 40.7298501,121.285501 C40.4318996,121.943199 39.7678956,123.079223 39.2287471,124 C39.0528144,123.402093 38.7122995,123.046338 38.1816638,123.360239 C37.8326361,120.618834 37.2168717,115.886398 37.018238,114.932735 C36.7344756,113.587444 39.855862,110 39.855862,110 C39.855862,110 42.9063077,110.672646 43.6866542,112.316891 C44.4670008,113.961136 43.6866542,113.889387 42.4806641,115.530643 Z" id="Path" fill="#000000" opacity="0.05"></path>
                    <path d="M27,81.3202664 C23.5026573,81.7976389 16.9946854,91 16.9946854,91 C16.9946854,91 16.1407509,89.7749357 14.9545688,88.0638717 C13.4623693,85.8926896 11.4572261,82.9335553 10,80.6904798 L18.5393451,72 L20.0927482,73.6506735 C20.0927482,73.6506735 23.1062918,76.6213107 23.1062918,77.1964583 C23.1062918,77.4207659 23.6891822,78.1023157 24.4294531,78.8471318 C25.563175,80.0060542 27,81.3202664 27,81.3202664 Z" id="Path" fill="#000000" opacity="0.1"></path>
                    <path d="M14.3034901,42.5172891 C14.1760243,42.2821577 14.0758725,42.1078838 14,42 L17.9210926,42.2378976 L20,54 C18.4491654,50.7745505 15.414264,44.5338866 14.3034901,42.5172891 Z" id="Path" fill="#000000" opacity="0.1"></path>
                    <path d="M24,79.8299712 C20.7769092,82.9048991 16.2459411,87.2161383 14.8298256,88.4755043 C14.6223692,88.6628242 14.4810583,88.7838617 14.420926,88.8242075 C14.2929386,88.9068536 14.1502947,88.9664263 14,89 C12.5838845,87.0057637 10.5634396,84.1325648 9,81.795389 L9.72158749,81.0806916 L17.9176188,73 L18.9308479,74.0461095 C18.9308479,74.0461095 22.0396873,77.0230548 22.0396873,77.5994236 C22.0396873,77.8760807 23.0108238,78.8789625 24,79.8299712 Z" id="Path" fill="#000000" opacity="0.1"></path>
                    <path d="M19.6611684,42.2923977 L15.3992915,42 C15.3992915,42 14.262791,44.7280702 13.3166543,44.9239766 C12.3705176,45.119883 11.1374145,47.3596491 11.1374145,47.3596491 C11.1374145,47.3596491 7.48924789,48.0438596 7.64835797,49.2134503 C7.80746804,50.3830409 2.03972793,58.748538 2.03972793,58.748538 C2.03972793,58.748538 0.144613329,62.7602339 1.47147768,65.6842105 C2.79834203,68.6081871 3.7444787,70.5584795 4.02860383,71.628655 C4.31272896,72.6988304 7.67677048,77.380117 7.64835797,78.2573099 C7.61994545,79.1345029 16.2459843,92 16.2459843,92 C16.2459843,92 22.5904985,82.6432749 26,82.1549708 C26,82.1549708 22.212612,78.5497076 22.212612,77.9649123 C22.212612,77.380117 19.2974882,74.3596491 19.2974882,74.3596491 L15.6038616,70.2660819 C15.6038616,70.2660819 14.3707585,69.6812865 15.6038616,68.6081871 C16.8369646,67.5350877 13.5212244,65.0994152 13.5212244,65.0994152 C13.5212244,65.0994152 13.4246218,63.3450292 14.6577249,62.8567251 C15.8908279,62.3684211 17.4989762,59.1549708 17.4989762,59.1549708 L21.9512169,56.8157895 L19.6611684,42.2923977 Z" id="Path" fill="#464353"></path>
                    <path d="M3,61.9080128 C3,61.9080128 7.90882513,60.3299495 7.99882025,61.3345635 C8.08881538,62.3391776 3,61.9080128 3,61.9080128 Z" id="Path" fill="#000000" opacity="0.1"></path>
                    <path d="M7,66 C7,66 11.1775502,66.6663053 10.9941322,67.752383 C10.8107142,68.8384607 7,66 7,66 Z" id="Path" fill="#000000" opacity="0.1"></path>
                    <path d="M11,50 C11,50 15.40012,56.0887233 16,54.8281788 L11,50 Z" id="Path" fill="#000000" opacity="0.1"></path>
                    <g id="Group" opacity="0.1" transform="translate(33.000000, 3.000000)" fill="#000000">
                        <path d="M3.72988506,3.10109589 C3.75565282,2.4040851 3.66831169,1.70750487 3.47126437,1.03849315 C3.3882355,0.755546097 3.32486573,0.46718601 3.2816092,0.175479452 C3.24482401,0.66290133 3.30940191,1.15266396 3.47126437,1.61383562 C3.60776084,2.09949632 3.69441623,2.59782889 3.72988506,3.10109589 L3.72988506,3.10109589 Z" id="Path"></path>
                        <path d="M23.8821839,9.42986301 C23.9942529,8.56684932 24.5862069,7.78150685 24.6408046,6.89835616 C24.6495279,6.7514332 24.6437528,6.60400706 24.6235632,6.45821918 C24.5114943,7.35 23.8936782,8.14109589 23.8591954,9.04726027 C23.8554741,9.17522519 23.8631674,9.30326729 23.8821839,9.42986301 L23.8821839,9.42986301 Z" id="Path"></path>
                        <path d="M24.5114943,13.6010959 C24.1361229,14.0047061 23.5942203,14.2100038 23.045977,14.1563014 C22.5055048,14.0968021 21.9784143,13.9490938 21.4856322,13.7190411 C20.8247126,13.4515068 20.1321839,13.1436986 19.7327586,12.5683562 C19.3678161,12.0332877 19.25,11.2824658 18.6810345,10.9746575 C18.0258621,10.6236986 17.2442529,11.0983562 16.5344828,11.2623288 C15.6896552,11.4636986 14.8103448,11.2278082 13.9913793,10.9257534 C12.7672414,10.4741096 11.0545977,9.64273973 9.79885057,10.5 C8.82183908,11.1673973 9.20114943,12.5856164 8.95114943,13.5953425 C8.56321839,15.160274 6.89942529,16.1843836 6.5862069,17.7694521 C6.4454023,18.4684932 6.53735632,19.3228767 5.97126437,19.7572603 C5.75207021,19.905734 5.50285063,20.0039595 5.24137931,20.0449315 C4.32758621,20.2463014 3.20114943,20.2923288 2.65517241,19.5386301 C2.49742472,19.323215 2.39839364,19.070409 2.36781609,18.8050685 C2.29362002,19.2620834 2.39639436,19.7302191 2.65517241,20.1139726 C3.21264368,20.8676712 4.33908046,20.8216438 5.24137931,20.620274 C5.50285063,20.5793019 5.75207021,20.4810765 5.97126437,20.3326027 C6.54597701,19.8982192 6.4454023,19.0438356 6.5862069,18.3447945 C6.89942529,16.7626027 8.56321839,15.7356164 8.95114943,14.1706849 C9.20114943,13.1609589 8.82183908,11.7427397 9.79885057,11.0753425 C11.0545977,10.2123288 12.7672414,11.0494521 13.9913793,11.5010959 C14.8045977,11.8031507 15.6896552,12.0390411 16.5344828,11.8376712 C17.2586207,11.6679452 18.0258621,11.1932877 18.6810345,11.55 C19.2557471,11.8578082 19.3678161,12.6086301 19.7327586,13.1436986 C20.1321839,13.7190411 20.8247126,14.0412329 21.4856322,14.2943836 C21.9784143,14.5244363 22.5055048,14.6721445 23.045977,14.7316438 C23.5942203,14.7853462 24.1361229,14.5800486 24.5114943,14.1764384 C24.7934496,13.7984653 24.9058579,13.3202064 24.8218391,12.8560274 C24.7915552,13.1289486 24.6838652,13.3874882 24.5114943,13.6010959 L24.5114943,13.6010959 Z" id="Path"></path>
                        <path d="M1.33908046,11.6363014 C1.24425287,10.9084932 0.632183908,10.3705479 0.316091954,9.70890411 C0.197306152,9.45976275 0.121522133,9.19228269 0.091954023,8.91780822 C0.0369635833,9.38532236 0.11464302,9.85888862 0.316091954,10.2842466 C0.623563218,10.9257534 1.20402299,11.4550685 1.32471264,12.1483562 C1.35392981,11.9792365 1.35876834,11.8067962 1.33908046,11.6363014 L1.33908046,11.6363014 Z" id="Path"></path>
                        <path d="M2.93678161,16.129726 C3.01992812,15.8164761 2.9599306,15.48244 2.77298851,15.2178082 C2.44827586,14.8467123 1.83045977,14.930137 1.43390805,14.6424658 C1.22146336,14.4742962 1.08574781,14.2274588 1.05747126,13.9578082 C0.994252874,14.4267123 1.05747126,14.9445205 1.43390805,15.2178082 C1.81034483,15.4910959 2.44827586,15.4335616 2.77298851,15.7931507 C2.85389153,15.8904831 2.91008596,16.005956 2.93678161,16.129726 L2.93678161,16.129726 Z" id="Path"></path>
                    </g>
                </g>
                <g id="55bfdb31-36b5-4718-97dd-773b4157bdc7" transform="translate(296.667689, 78.639253)">
                    <path d="M2,144 C2,144 27.2662149,111.578684 25.3102614,79.3515333 C24.4869313,65.8216904 27.7758955,52.3536275 35.124879,41.025804 C38.6206653,35.6593893 42.5957434,30.6296515 47,26" id="Path" stroke="#535461" stroke-width="2"></path>
                    <path d="M47.6083532,5.85922056 C45.7522291,10.6471758 48.7356092,28 48.7356092,28 C48.7356092,28 62.4935639,17.6042341 64.3496881,12.8209637 C65.5514078,9.72452775 65.0655395,6.19985253 63.0751051,3.57464912 C61.0846708,0.949445713 57.8920646,-0.377455041 54.6999106,0.0937775341 C51.5077565,0.565010109 48.8010187,2.76278457 47.599299,5.85922056 L47.6083532,5.85922056 Z" id="Path" fill="#7A00FF" fill-rule="nonzero"></path>
                    <path d="M22.1486446,25.64949 C23.1059892,30.5407849 34.7529256,43 34.7529256,43 C34.7529256,43 40.8554303,27.0851756 39.8980857,22.1938807 C38.8919504,17.3541298 34.1732851,14.2223385 29.3130577,15.1685682 C24.4528303,16.1147978 21.2590298,20.7870539 22.1486446,25.64949 L22.1486446,25.64949 Z" id="Path" fill="#7A00FF" fill-rule="nonzero"></path>
                    <path d="M6.2644728,68.618647 C9.57727083,72.2623299 26,77 26,77 C26,77 23.2066779,60.625483 19.8938798,56.9818001 C17.750631,54.6249163 14.4713122,53.5539492 11.291211,54.1723217 C8.11110986,54.7906943 5.51335946,57.0044609 4.4765073,59.9797173 C3.43965514,62.9549736 4.12122374,66.2397072 6.2644728,68.5965908 L6.2644728,68.618647 Z" id="Path" fill="#7A00FF" fill-rule="nonzero"></path>
                    <path d="M1.28566655,102.472726 C3.72838796,106.611061 17.9994692,114 17.9994692,114 C17.9994692,114 18.0968393,97.3804086 15.6541179,93.2420729 C14.0847994,90.539061 11.246988,88.9211257 8.21884366,89.0029638 C5.19069934,89.0848019 2.43699186,90.8538524 1.0039278,93.6380063 C-0.429136254,96.4221601 -0.321605396,99.7940958 1.28566655,102.472726 L1.28566655,102.472726 Z" id="Path" fill="#7A00FF" fill-rule="nonzero"></path>
                    <path d="M52.7019666,50.3557131 C48.239241,52.2473697 32,49.3713258 32,49.3713258 C32,49.3713258 41.6349326,35.5173226 46.0845197,33.6256659 C50.524123,31.8233862 55.5384481,34.0451733 57.3462475,38.6156021 C59.1540469,43.1860309 57.086164,48.4133578 52.7019666,50.3557131 Z" id="Path" fill="#7A00FF" fill-rule="nonzero"></path>
                    <path d="M45.7515912,90.9831629 C40.8647828,91.407746 26,83.6613637 26,83.6613637 C26,83.6613637 39.3765275,73.4713704 44.2455657,73.0467874 C47.4274739,72.7160854 50.5374484,74.1559106 52.3810935,76.8132934 C54.2247385,79.4706762 54.5154058,82.9324492 53.1414637,85.8691072 C51.7675216,88.8057651 48.9425893,90.7607192 45.7515912,90.9831629 Z" id="Path" fill="#7A00FF" fill-rule="nonzero"></path>
                    <path d="M33.8670908,129.799994 C29.3217736,131.061564 14,125.942414 14,125.942414 C14,125.942414 25.0367984,113.49978 29.5821157,112.233655 C34.0720563,111.129525 38.5695036,114.04117 39.7258807,118.800723 C40.8822579,123.560276 38.2770735,128.437029 33.8500192,129.799994 L33.8670908,129.799994 Z" id="Path" fill="#7A00FF" fill-rule="nonzero"></path>
                    <path d="M47.6083532,5.85922056 C45.7522291,10.6471758 48.7356092,28 48.7356092,28 C48.7356092,28 62.4935639,17.6042341 64.3496881,12.8209637 C65.5514078,9.72452775 65.0655395,6.19985253 63.0751051,3.57464912 C61.0846708,0.949445713 57.8920646,-0.377455041 54.6999106,0.0937775341 C51.5077565,0.565010109 48.8010187,2.76278457 47.599299,5.85922056 L47.6083532,5.85922056 Z" id="Path" fill="#000000" fill-rule="nonzero" opacity="0.25"></path>
                    <path d="M22.1486446,25.64949 C23.1059892,30.5407849 34.7529256,43 34.7529256,43 C34.7529256,43 40.8554303,27.0851756 39.8980857,22.1938807 C38.8919504,17.3541298 34.1732851,14.2223385 29.3130577,15.1685682 C24.4528303,16.1147978 21.2590298,20.7870539 22.1486446,25.64949 L22.1486446,25.64949 Z" id="Path" fill="#000000" fill-rule="nonzero" opacity="0.25"></path>
                    <path d="M6.2644728,68.618647 C9.57727083,72.2623299 26,77 26,77 C26,77 23.2066779,60.625483 19.8938798,56.9818001 C17.750631,54.6249163 14.4713122,53.5539492 11.291211,54.1723217 C8.11110986,54.7906943 5.51335946,57.0044609 4.4765073,59.9797173 C3.43965514,62.9549736 4.12122374,66.2397072 6.2644728,68.5965908 L6.2644728,68.618647 Z" id="Path" fill="#000000" fill-rule="nonzero" opacity="0.25"></path>
                    <path d="M1.28566655,102.472726 C3.72838796,106.611061 17.9994692,114 17.9994692,114 C17.9994692,114 18.0968393,97.3804086 15.6541179,93.2420729 C14.0847994,90.539061 11.246988,88.9211257 8.21884366,89.0029638 C5.19069934,89.0848019 2.43699186,90.8538524 1.0039278,93.6380063 C-0.429136254,96.4221601 -0.321605396,99.7940958 1.28566655,102.472726 L1.28566655,102.472726 Z" id="Path" fill="#000000" fill-rule="nonzero" opacity="0.25"></path>
                    <path d="M52.7019666,50.3557131 C48.239241,52.2473697 32,49.3713258 32,49.3713258 C32,49.3713258 41.6349326,35.5173226 46.0845197,33.6256659 C50.524123,31.8233862 55.5384481,34.0451733 57.3462475,38.6156021 C59.1540469,43.1860309 57.086164,48.4133578 52.7019666,50.3557131 Z" id="Path" fill="#000000" fill-rule="nonzero" opacity="0.25"></path>
                    <path d="M45.7515912,90.9831629 C40.8647828,91.407746 26,83.6613637 26,83.6613637 C26,83.6613637 39.3765275,73.4713704 44.2455657,73.0467874 C47.4274739,72.7160854 50.5374484,74.1559106 52.3810935,76.8132934 C54.2247385,79.4706762 54.5154058,82.9324492 53.1414637,85.8691072 C51.7675216,88.8057651 48.9425893,90.7607192 45.7515912,90.9831629 Z" id="Path" fill="#000000" fill-rule="nonzero" opacity="0.25"></path>
                    <path d="M33.8670908,129.799994 C29.3217736,131.061564 14,125.942414 14,125.942414 C14,125.942414 25.0367984,113.49978 29.5821157,112.233655 C34.0720563,111.129525 38.5695036,114.04117 39.7258807,118.800723 C40.8822579,123.560276 38.2770735,128.437029 33.8500192,129.799994 L33.8670908,129.799994 Z" id="Path" fill="#000000" fill-rule="nonzero" opacity="0.25"></path>
                    <path d="M3,143 C3,143 39.3372781,123.825025 50.5193294,93.6941757 C55.2150888,81.0426456 63.6850099,70.1307009 75.0031065,62.8253208 C80.3875695,59.3700901 86.076983,56.4159679 92,54" id="Path" stroke="#535461" stroke-width="2"></path>
                    <path d="M99.3490461,34.4172139 C95.9162966,37.8146346 92,54 92,54 C92,54 108.018045,50.4564061 111.455151,47.0722738 C114.814384,43.6587306 114.852833,38.1341886 111.541447,34.6726471 C108.230061,31.2111056 102.797847,31.0972996 99.3490461,34.4172139 L99.3490461,34.4172139 Z" id="Path" fill="#7A00FF" fill-rule="nonzero"></path>
                    <path d="M70.1458311,42.1535517 C69.0374336,46.9867926 74.6110895,63 74.6110895,63 C74.6110895,63 86.613451,50.9867161 87.7308966,46.1534752 C88.5221701,43.0000723 87.5396964,39.6671176 85.1622793,37.4396698 C82.7848622,35.2122219 79.383879,34.4382313 76.2706172,35.4161187 C73.1573555,36.3940062 70.818139,38.9710156 70.1548792,42.1535517 L70.1458311,42.1535517 Z" id="Path" fill="#7A00FF" fill-rule="nonzero"></path>
                    <path d="M37.4737729,75.0083981 C38.9674874,79.8058787 51.9039601,91 51.9039601,91 C51.9039601,91 56.1768889,74.359596 54.6831744,69.5621154 C53.7690498,66.3910361 51.225647,63.9681254 48.0365343,63.2303559 C44.8474217,62.4925865 41.5125561,63.5556183 39.3215754,66.0083625 C37.1305948,68.4611066 36.426979,71.9190468 37.4828257,75.0449504 L37.4737729,75.0083981 Z" id="Path" fill="#7A00FF" fill-rule="nonzero"></path>
                    <path d="M18.0775389,104.136108 C18.7472454,109.022342 29.6209266,122 29.6209266,122 C29.6209266,122 36.616645,106.624053 35.9559885,101.733336 C35.5227284,98.5702863 33.4190041,95.8764904 30.4372682,94.6666755 C27.4555322,93.4568606 24.0487814,93.9148263 21.5003057,95.8680615 C18.95183,97.8212966 17.6488036,100.973058 18.0820639,104.136108 L18.0775389,104.136108 Z" id="Path" fill="#7A00FF" fill-rule="nonzero"></path>
                    <path d="M85.952034,76.9990704 C81.0282651,76.8590297 67,67.4492016 67,67.4492016 C67,67.4492016 81.5340705,58.8660649 86.4578393,59.0015882 C91.3312084,59.2106622 95.1346401,63.3312015 94.9963453,68.251984 C94.8580505,73.1727665 90.8293105,77.0691092 85.952034,76.9990704 L85.952034,76.9990704 Z" id="Path" fill="#7A00FF" fill-rule="nonzero"></path>
                    <path d="M62.7428546,111.565021 C58.2425409,109.929689 48,96.6101623 48,96.6101623 C48,96.6101623 63.8636058,92.7700936 68.3682468,94.4054253 C72.764583,96.1190212 75.055381,101.215727 73.5260412,105.880798 C71.9967014,110.545868 67.2074251,113.070476 62.7428546,111.565021 L62.7428546,111.565021 Z" id="Path" fill="#7A00FF" fill-rule="nonzero"></path>
                    <path d="M36.6918258,142.904535 C31.7829544,142.097316 19,130.841603 19,130.841603 C19,130.841603 34.6939242,124.26141 39.6027956,125.068628 C44.4366383,125.951078 47.6742331,130.556709 46.880303,135.421227 C46.0863729,140.285744 41.5537549,143.614895 36.6918258,142.904535 L36.6918258,142.904535 Z" id="Path" fill="#7A00FF" fill-rule="nonzero"></path>
                </g>
            </g>
        </g>
    </g>
</svg>